<?xml version="1.0" encoding="utf-8"?>
<!-- Generator: Adobe Illustrator 25.2.3, SVG Export Plug-In . SVG Version: 6.00 Build 0)  -->
<svg version="1.1" id="profile" xmlns="http://www.w3.org/2000/svg" xmlns:xlink="http://www.w3.org/1999/xlink" x="0px" y="0px"
	 viewBox="0 0 256 256" style="enable-background:new 0 0 256 256;" xml:space="preserve">
<style type="text/css">
	.st0{fill:#FFFFFF;}
</style>
<g>
	<path class="st0" d="M238.3,126.6c1,59.3-50.9,110.6-110.7,110.3c-59.1-0.2-110.4-51.3-110-111.3C17.9,66.7,68.9,15.3,129.2,15.9
		C187.7,16.5,239.4,67,238.3,126.6z M49.8,185.6c1.1-0.4,1.2-1.2,1.6-1.8c10.5-19,26-32.4,46.2-40.3c0.8-0.3,1.9-0.4,2.1-1.3
		c0.2-1.2-1.1-1.4-1.8-2c-17.2-13-25.9-35.3-18.7-57.1c7.8-23.8,33.5-39.8,58-34.8c21.7,4.5,35.9,18.1,41.1,39.5
		c5.2,21.5-3.1,38.7-19.9,52.3c-0.7,0.6-2.1,0.8-1.8,2c0.3,1,1.5,1.1,2.4,1.4c19.8,7.9,35.1,21.1,45.5,39.7c1.5,2.7,2.1,2.4,3.7,0.1
		c14.5-20.9,20-44.1,17-69.3c-3.1-26.4-15.1-48.1-35.9-64.6c-21.4-17-46.1-23.2-73.1-20.2c-26.3,3-48.2,14.7-64.4,35.5
		c-23.1,29.6-27,62.6-14.7,97.7C39.9,171,44.4,178.6,49.8,185.6z M129.8,150.5c-30,0.6-51.8,12.7-66.1,37.3
		c-5.9,10.2-6.2,7.8,2.9,15.2c19.4,15.6,41.8,22.2,66.5,21.1c23.3-1.1,43.7-9.4,61.2-25.1c2.1-1.9,2.2-3.5,1-5.9
		C181.4,165.4,159,151.4,129.8,150.5z M166.7,98.9c0.6-21.3-15.8-38.8-38.5-38.9C105.3,60,89.3,77.5,89.2,98.7
		c-0.1,20.8,15.2,39,38.8,39C150.5,137.6,166.7,121.4,166.7,98.9z"/>
</g>
</svg>
