<?xml version="1.0" encoding="utf-8"?>
<!-- Generator: Adobe Illustrator 25.2.3, SVG Export Plug-In . SVG Version: 6.00 Build 0)  -->
<svg version="1.1" id="CV" xmlns="http://www.w3.org/2000/svg" xmlns:xlink="http://www.w3.org/1999/xlink" x="0px" y="0px"
	 viewBox="0 0 256 256" style="enable-background:new 0 0 256 256;" xml:space="preserve">
<style type="text/css">
	.st0{fill:#FFFFFF;}
</style>
<g>
	<path class="st0" d="M128,249.6c-2.4,0-4.7-0.9-6.4-2.4c-1.9-1.8-3.1-4.2-3.1-6.6c-0.1-2.5,0.9-5,2.8-7c1.1-1.2,1.6-2.4,1.6-4.3
		c-0.1-8.6-0.1-17.3,0-25.9c0-1.1-0.1-1.9-0.4-2.2c-0.3-0.3-1-0.4-1.5-0.4c-0.2,0-0.4,0-0.6,0c-0.8,0.1-1.7,0.1-2.6,0.1
		c-4,0-7.9-0.7-11.6-1.3c-1.6-0.3-3.3-0.6-5-0.8c-0.5-0.1-0.8-0.1-1.2-0.1c-1.2,0-2,0.3-2.8,1.2c-4.1,4.2-8.2,8.3-12.2,12.2
		c-2.1,2-4.1,4.1-6.2,6.1c-0.9,0.9-1.3,1.9-1.4,3.6c-0.5,5.8-3.8,9-9.3,9c-0.2,0-0.4,0-0.6,0c-5-0.1-8.4-3.6-8.6-8.7
		c-0.2-5.5,3.2-9.2,8.9-9.7c1.6-0.1,2.4-0.4,3.1-1.1L86.2,196c0.2-0.2,0.3-0.4,0.5-0.5c-0.1,0-0.2-0.1-0.4-0.1
		c-11.5-3.3-22.8-8.4-34.5-15.7c-0.7-0.4-1.2-0.7-1.6-0.7c-0.2,0-0.6,0-1.5,1c-2.8,3-5.7,5.9-8.6,8.6c-2.6,2.4-4.1,4.4-4.1,7.8
		c0,4.3-3.8,7.4-9.1,7.4c-4.8,0-8.4-3-9-7.3c-0.5-3.2,0.3-6.4,2-8.4c1.2-1.4,2.7-2.2,4.4-2.2c4.1-0.2,6.4-2.5,9.2-5.3
		c0.4-0.4,0.8-0.8,1.2-1.2c0.5-0.5,1.1-1.1,1.6-1.7c1.1-1.1,2.2-2.3,3.5-3.4c1.1-1,1.3-1.5,1.3-1.6c0-0.2-0.2-0.8-1.5-1.8
		c-10.4-8.5-19.1-18.6-26.7-31c-4-6.5-4.2-11.8-0.4-17.9c8-13.2,17-23.7,27.5-32.2c1.1-0.9,1.2-1.3,1.2-1.3c0,0,0-0.3-1-1.2
		c-2.7-2.4-5.4-5.1-7.8-7.8c-2-2.1-3.9-3.5-6.9-3.7c-2.3-0.2-4.3-1.1-5.6-2.8c-1.7-2-2.4-4.8-2-8c0.5-4.6,4.3-7.7,9.1-7.7
		c5.2,0,8.9,3.5,9.2,8.7c0.1,1.8,0.7,3.2,2.1,4.5c3.5,3.4,7,6.8,10.4,10.5c0.9,1,1.5,1.1,1.9,1.1c0.4,0,1-0.2,1.6-0.6
		C63.4,74.2,74.6,69.2,86.2,66c0.3-0.1,0.5-0.2,0.7-0.2c-0.1-0.1-0.2-0.3-0.4-0.4L70.8,49.6c-0.5-0.5-1.2-0.6-2.4-0.7l-0.4,0
		c-5.7-0.4-9.4-4.4-9.1-10c0.3-5.1,3.7-8.6,8.5-8.9c0.2,0,0.4,0,0.6,0c5.5,0,9,3.4,9.5,9c0.1,1.7,0.5,2.7,1.5,3.6
		c2.2,2.2,4.3,4.2,6.4,6.3c4.1,4.1,8.4,8.3,12.5,12.6c0.8,0.8,1.3,1.1,1.9,1.1c0.2,0,0.3,0,0.5-0.1l1.8-0.4c5.2-1,10.5-2.1,16-2.1
		c0.6,0,1.3,0,1.9,0c0.2,0,0.4,0,0.6,0l0,0c1.1,0,1.8-0.2,2.1-0.5c0.4-0.4,0.6-1.4,0.5-2.9c-0.3-3.3-0.3-6.6-0.2-9.8c0-1,0-2,0-3.1
		c0-1.1,0-2.2,0-3.4c0-2.2,0-4.5,0-6.8c0.1-3.3-0.2-5.3-2.3-7.4c-1.6-1.6-2.4-3.7-2.3-6c0.1-2.6,1.3-5,3.3-6.7
		c1.5-1.4,3.8-2.2,6.3-2.2c2.5,0,4.9,0.8,6.5,2.3c2,1.8,3.1,4.3,3.1,6.9c0,2.3-0.8,4.4-2.3,5.9c-1.9,2-2.3,4-2.2,7
		c0.1,7.8,0.1,15.7,0,23.3c0,1.3,0.1,2.2,0.5,2.6c0.3,0.3,1,0.5,2,0.5l0.3,0c0.7,0,1.3,0,2,0c6.2,0,12.4,1.3,17.9,2.5
		c0.2,0,0.3,0,0.5,0c0.6,0,1-0.2,1.8-0.9l19.3-19.3c0.9-0.9,1.1-2,1.2-3.4c0.5-5.7,4-9.1,9.5-9.1c0.2,0,0.4,0,0.6,0
		c5,0.3,8.2,3.7,8.4,8.9c0.1,6-3.1,9.5-9.2,9.7c-1.3,0.1-2.1,0.4-3,1.2l-15.1,15.1c-0.3,0.3-0.5,0.6-0.6,0.8
		c0.2,0.1,0.4,0.2,0.8,0.3c11.3,3,22.4,7.9,33.9,15.1c0.8,0.5,1.5,0.8,1.9,0.8c0.4,0,0.9-0.1,1.8-1.2c2.4-2.6,5.1-5.3,8.3-8.4
		c2.4-2.3,4.3-4.4,4.4-7.7c0.1-4.3,4-7.5,9.1-7.5c4.4,0,8.3,3,8.9,7c0.6,3.2-0.1,6.6-1.8,8.7c-1.1,1.4-2.5,2.2-4.1,2.4
		c-5,0.4-7.9,3.4-11,6.7c-0.9,0.9-1.8,1.9-2.8,2.8c-0.3,0.3-0.6,0.6-1,1c-0.4,0.4-0.7,0.8-1.2,1.2c-1.3,1-1.4,1.5-1.4,1.6
		c0,0.2,0.2,0.8,1.7,2.1c11,8.7,20.2,19.7,28,33.7c2.5,4.4,2.5,8.5,0.1,12.8c-7.6,13.4-16.5,24.2-27.2,33.1
		c-1.3,1.1-2.7,2.2-2.8,2.7c0.1,0.3,1.3,1.5,2.4,2.7c0.5,0.5,1,1,1.6,1.6c1.6,1.6,3.3,3.2,4.8,4.9c2.2,2.5,4,3.9,7,3.9
		c2.1,0,3.9,0.8,5.2,2.2c1.7,1.8,2.6,4.4,2.4,7.4c-0.1,4.9-3.6,8.4-8.7,8.7l-0.4,0c-2.5,0-4.8-0.7-6.4-1.9c-1.9-1.4-2.9-3.4-2.9-5.7
		c0-2.9-1.3-4.7-3.5-6.9c-3.1-3-6.1-6-9.1-9.1c-0.8-0.8-1.3-1.1-1.8-1.1c-0.3,0-0.7,0.1-1.1,0.4c-10.9,7-22.7,12.4-35.1,16
		c-0.1,0-0.1,0-0.2,0.1c0,0,0.2,0.2,0.2,0.2c5.4,5.4,11,11,16.7,16.4c0.3,0.3,0.9,0.4,1.8,0.4c0.4,0,0.9,0,1.3,0.1
		c5.1,0.6,8.1,4.5,7.8,10.1c-0.3,5-3.5,8.1-8.5,8.2l-0.3,0c-5.6,0-9.4-3.2-9.5-8.3c-0.1-2.1-0.8-3.7-2.6-5.4
		c-4.8-4.7-9.9-9.8-16.4-16.5c-1.3-1.4-2.5-2-4.2-2c-0.4,0-0.9,0-1.4,0.1c-1.3,0.2-2.6,0.4-3.9,0.6c-4,0.7-8.1,1.4-12.2,1.4
		c-1,0-1.9,0-2.9-0.1c-0.2,0-0.3,0-0.5,0c-1,0-1.6,0-1.6,2.1c0.1,8.8,0.1,17.8,0,26.7c0,1.6,0.5,2.8,1.6,4c1.9,2.1,2.9,4.7,2.8,7.3
		c-0.1,2.4-1.2,4.6-3,6.3C132.6,248.8,130.4,249.6,128,249.6z M133.2,190.4c0,0,0.1,0,0.2,0l0.2,1.6l0-1.6c4.6-0.3,9.4-0.6,14.1-1.1
		c0.1,0,0.3,0,0.4-0.1c-0.1-0.1-0.1-0.1-0.2-0.2c-4.5-3.5-5-8.2-4.9-12.2c0-1.2,0.1-2.3,0.1-3.3c0.1-1.6,0.1-3.2-0.1-3.6
		c-0.3-0.2-2.2-0.2-4.1-0.2c-0.9,0-1.9,0-3.1,0c-0.1,0-0.3,0-0.4,0c-1,0-1.7,0.2-2,0.5c-0.4,0.4-0.4,1.4-0.4,2.1
		c0.2,1.9,0.1,3.8,0.1,5.7c0,0.6,0,1.3,0,1.9v9.4C133,190.1,133.2,190.3,133.2,190.4L133.2,190.4z M108.1,189.2
		c3.1,0.3,6.3,0.6,9.4,0.9c1.6,0.1,3.2,0.3,4.8,0.4h0.1c0.2,0,0.4,0,0.4-0.1c0.1-0.1,0.2-0.4,0.2-0.9v-9.1c0-1,0-2,0.1-3
		c0.1-2.1,0.2-4.2-0.2-6.1c-0.3-1.9-1-1.9-1.6-1.9c-0.5,0-1.2,0.1-1.9,0.2c-0.8,0.1-1.6,0.3-2.4,0.3c-0.4,0-0.8,0-1.2-0.1
		c-0.6-0.1-1.2-0.2-1.7-0.2c-0.7,0-1.2,0-1.2,1.5c0,0.5,0,1,0,1.5c0,1,0,2,0,2.9c0.3,5,0,10.1-5,13.7
		C108,189.2,108,189.2,108.1,189.2z M168.6,155.4c-1.1,0-1.4,0.2-1.7,1.5c-1.4,6.2-4.9,10.1-10,11.5c-4.1,1.1-4.3,3.1-3.8,5.2l0,0.2
		v0.2c0,5.6,0.9,7.2,6.8,12c0.6,0.5,1.1,0.6,1.5,0.6c0.6,0,1.3-0.3,2.1-0.6c0.9-0.4,2-0.8,3.2-0.8c0.7,0,1.6-0.4,2.4-0.7
		c0.4-0.2,0.9-0.4,1.3-0.5c8.9-2.9,17.5-6.8,25.6-11.6c1.2-0.7,1.8-1.2,1.9-1.4c0,0,0-0.4-1-1.3c-3.2-2.9-6.3-6-9.3-9.1
		c-1.3-1.3-2.6-2.6-3.8-3.9c-0.9-0.9-1.7-1.2-2.9-1.2H168.6z M57.8,170.9c0.4,0.4,1.8,1.3,2.3,1.6c9.6,5.7,20.7,10.2,33.8,13.9
		c0.2,0.1,0.5,0.1,0.7,0.1c0.4,0,0.7-0.1,1-0.4l0.2-0.2c4.4-3.9,8.2-7.2,7.1-13.4c-0.4-2.5-0.8-3.1-2.4-3.5
		c-5.7-1.6-9.7-5.3-10.6-10.1c-0.7-3.1-1.9-3.7-4.1-3.7c-0.4,0-1,0-1.6,0.1c-0.4,0-0.8,0.1-1.1,0.1c-0.3,0-0.7,0-1,0
		c-0.3,0-0.5,0-0.8,0h-0.2l-0.2-0.1c-1-0.3-2-0.4-3-0.4c-3.6,0-6.8,1.8-10.5,6c-1.7,1.9-3.5,3.6-5.2,5.3c-0.9,0.8-1.7,1.6-2.5,2.5
		C59.2,169.3,58.1,170.4,57.8,170.9z M22.7,135.5c6.6,10.9,15,20.5,25,28.4c0.6,0.5,1,0.6,1.2,0.6c0.3,0,0.7-0.3,1.2-0.8
		c1.2-1.2,2.4-2.4,3.6-3.5c2.1-2,4.1-3.8,5.8-6c4.6-6.2,10.6-9,19.4-9c0.8,0,1.7,0,2.5,0.1c1.3,0.1,2.4,0.1,3.4,0.2
		c1.2,0.1,2.1,0.1,2.8,0.1c0.8,0,1-0.1,1.1-0.1c0.2-0.3,0.2-2.2,0.2-4c0-1.1,0-2.4,0.1-4c0-1.2-0.2-1.6-0.3-1.8
		c-0.2-0.2-0.7-0.4-2.1-0.4h-63l-0.8,0C22.7,135.4,22.7,135.4,22.7,135.5z M183.6,145.3c2.6,0,4.8,1,6.8,3c1.7,1.7,3.4,3.5,5.2,5.2
		c3,3,6.1,6.1,9,9.3c0.9,1,1.7,1.5,2.3,1.5c0.6,0,1.4-0.4,2.3-1.3c9.7-8.3,17.2-16.9,23.1-26.4c0.2-0.3,0.4-0.6,0.7-0.9
		c0.1-0.1,0.2-0.2,0.3-0.4c-0.2,0-0.4,0-0.5,0c-0.3,0-0.7,0.1-1,0.1c-4.4-0.1-9.2-0.1-15.5-0.1c-2.6,0-5.2,0-7.8,0
		c-2.6,0-5.2,0-7.8,0c-2.9,0-5.8,0-8.6,0c-2.9,0-5.7,0-8.6,0c-2.9,0-5.7,0-8.6,0c-0.5,0-1.1,0-1.6,0c-1.1,0-2.1,0-2.9,0
		c-0.6,0-1.1,0-1.6,0c-1.2,0-1.5,0.1-1.6,0.2c-0.2,0.3-0.2,2.2-0.2,4.1c0,1.1,0,2.5,0,4.1c0,1.6,0.3,1.8,1.7,1.8c1.1,0,2.2,0,3.3,0
		c1,0,2,0,3,0c1,0,2,0,2.9,0c2.2,0,3.8,0,5.3-0.1C183.3,145.3,183.5,145.3,183.6,145.3z M106.9,101.5c-5.6,0-7.9,2.3-7.9,7.9
		c-0.1,13.9-0.1,28.1,0,42.1c0,6,2.3,8.3,8.3,8.4h41.3c5.8,0,8.2-2.4,8.3-8.4c-0.1-7.1-0.1-14.1-0.1-20.8c0-2.4,0-4.8,0-7.2
		c0-4.7,0-9.5,0-14.2c-0.1-5.5-2.4-7.8-7.9-7.8H106.9z M22.8,125.4c0.6,0.1,1.4,0.1,1.8,0.1c10.2-0.2,20.6-0.2,30.7-0.2
		c2.9,0,5.9,0,8.9,0c3,0,5.9,0,8.9,0c3,0,5.9,0,8.8,0c0.4,0,0.8,0,1.1,0c0.8,0,1.5,0,2.1,0c0.5,0,1,0,1.4,0c1.2,0,1.9-0.1,2.1-0.2
		c0.2-0.3,0.2-2.1,0.3-3.7c0-0.9,0-2,0.1-3.2c0-1.1-0.1-1.8-0.4-2.2c-0.3-0.4-1.1-0.4-1.8-0.4l-0.3,0c-1.5,0.1-3,0.1-5.1,0.1
		c-0.9,0-1.8,0-2.7,0c-0.9,0-1.8,0-2.7,0c-1,0-2,0-3,0c0,0,0,0,0,0c-3,0-5.4-1-7.5-3.1c-1.9-1.9-3.8-3.8-5.6-5.6
		c-3-2.9-6.1-5.9-8.9-9.1c-0.9-0.9-1.5-1.4-2.1-1.4c-0.6,0-1.3,0.4-2.2,1.2c-9.8,8.2-17.3,16.8-23,26.4
		C23.2,124.6,23,125,22.8,125.4z M169.7,115.7c-0.6,0-2.2,0-2.5,0.2c-0.2,0.3-0.2,2-0.2,3.6c0,0.9,0,2-0.1,3.2
		c0,1.1,0.1,1.9,0.4,2.2c0.3,0.3,1.1,0.5,2.3,0.5c4.5-0.1,9.3-0.1,15.6-0.1c2.6,0,5.2,0,7.8,0c2.6,0,5.2,0,7.8,0c3.5,0,6.9,0,10.4,0
		c3.5,0,6.9,0,10.4,0c3.5,0,6.9,0,10.4,0c0.5,0,0.9,0,1.1-0.1c-0.1-0.2-0.2-0.5-0.5-0.9c-6.6-10.6-14.8-19.9-24.5-27.5
		c-0.7-0.6-1.1-0.7-1.2-0.7c-0.3,0-0.7,0.3-1.2,0.8c-3,3.1-6,6.2-9.1,9.1c-1.9,1.8-3.3,3.3-4.5,4.5c-4.4,4.5-5.1,5.1-10.7,5.1
		l-1.6,0c-0.7,0-1.5,0-2.3,0c-1.1,0-2.4,0-3.9,0c-0.5,0-0.9,0-1.3,0L169.7,115.7z M58,89.6c0.1,0.1,0.2,0.4,0.7,0.8
		c0.8,0.8,1.5,1.5,2.3,2.2c2.6,2.4,5.2,5,7.6,7.7c3,3.7,5.9,5.5,8.9,5.5c0.7,0,1.4-0.1,2.2-0.3l0.2-0.1h7.5c1.3,0,1.6-0.2,1.8-1.4
		c1.2-6.5,5.4-10.9,12.2-12.7c1.2-0.3,1.3-0.5,1.6-2.1c0.9-5.9-1.1-10.5-5.9-14c-1-0.7-1.8-1.1-2.6-1.1c-0.3,0-0.6,0-0.9,0.1
		c-12.2,3.1-23.8,8-34.7,14.6C58.3,89.2,58,89.5,58,89.6z M161.7,74.3c-1,0-1.8,0.4-3,1.2c-4.7,3.5-6.5,7.9-5.6,13.9
		c0.2,1.5,0.4,1.8,1.6,2.1c6.2,1.5,10.3,5.1,11.1,9.9c0.7,3.6,2.2,4.3,4.8,4.3c0,0,0,0,0,0c0.8,0,1.6-0.1,2.3-0.1
		c0.6-0.1,1.1-0.1,2.2-0.1c0.5-0.1,1-0.2,1.6-0.2c0.6,0,1.2,0.1,1.8,0.1c0.6,0,1.2,0.1,1.7,0.1c1.5,0,2.4-0.4,3.3-1.2
		c1.6-1.6,3.1-3.1,4.6-4.7c3-3,6.1-6.1,9.2-9.2c0.5-0.5,0.6-0.8,0.7-0.9c-0.1-0.1-0.3-0.3-0.8-0.6c-11.2-6.7-22.4-11.4-34.3-14.5
		C162.4,74.4,162.1,74.3,161.7,74.3z M133.6,70.1c-0.5,0-0.7,0-0.7,1.1c0.1,3,0.1,6.1,0.1,9.3v3.4c0,1.4,0,2.6,0,3.7
		c0,1.5,0,3.1,0.2,3.5c0.3,0.2,1.9,0.2,3.5,0.2c1,0,2.3,0,3.7,0.1c0.1,0,0.3,0,0.3,0c1,0,1.7-0.2,2-0.5c0.3-0.3,0.4-1,0.2-2.1
		c-0.1-0.8-0.1-1.5,0-2.2c0-0.3,0-0.6,0-0.9c-0.2-4.7-0.4-10,4.7-14c-0.2,0-0.4-0.1-0.6-0.1c-4.7-0.1-9.2-0.7-13-1.3
		C134,70.1,133.8,70.1,133.6,70.1z M118.5,91.2c0.8,0,1.7,0,2.7,0c1.1,0,1.4-0.2,1.5-0.3c0.2-0.2,0.3-0.7,0.2-1.3
		c-0.1-2.1,0-4.1,0-6.1c0-1,0-2,0-3v-9.4c0-1.1-0.2-1.1-0.7-1.1c-0.2,0-0.4,0-0.6,0c-4.2,0.6-8.5,1.3-13,1.3c-0.5,0-0.7,0.1-0.9,0.1
		c0,0.1,0.2,0.3,0.5,0.5l0.1,0.1c4.1,3,4.4,7.2,4.4,11.3c0,1.8,0,3.3-0.1,4.5c0,1.4-0.1,2.9,0.1,3.2c0.3,0.2,2.2,0.2,3,0.2
		L118.5,91.2z"/>
	<path class="st0" d="M128,144.1c-7.8,0-13.5-5.8-13.5-13.8c0-7.9,5.4-13.5,13.2-13.5c8.2,0,13.7,5.4,13.7,13.4
		C141.4,138.1,135.6,144.1,128,144.1z"/>
</g>
</svg>
