<?xml version="1.0" encoding="utf-8"?>
<!-- Generator: Adobe Illustrator 25.2.3, SVG Export Plug-In . SVG Version: 6.00 Build 0)  -->
<svg version="1.1" id="experiment" xmlns="http://www.w3.org/2000/svg" xmlns:xlink="http://www.w3.org/1999/xlink" x="0px" y="0px"
	 viewBox="0 0 256 256" style="enable-background:new 0 0 256 256;" xml:space="preserve">
<style type="text/css">
	.st0{fill:#FFFFFF;}
</style>
<g>
	<polygon class="st0" points="237.3,68.3 237.3,68.3 237.3,68.3 	"/>
	<path class="st0" d="M237.3,68.3c-8,3.6-16.7,6-25.8,7.1c9.3-5.6,16.4-14.3,19.7-24.8c-8.7,5.1-18.3,8.9-28.5,10.9
		c-8.2-8.7-19.8-14.2-32.8-14.2c-24.8,0-44.9,20.1-44.9,44.9c0,3.5,0.4,6.9,1.2,10.2C89.1,100.5,56,82.6,33.9,55.5
		C30,62.1,27.8,69.8,27.8,78c0,15.6,7.9,29.3,20,37.3c-7.4-0.2-14.3-2.3-20.3-5.6c0,0.2,0,0.4,0,0.6c0,21.7,15.5,39.9,36,44
		c-3.8,1-7.7,1.6-11.8,1.6c-2.9,0-5.7-0.3-8.4-0.8c5.7,17.8,22.3,30.8,41.9,31.2c-15.4,12-34.7,19.2-55.7,19.2
		c-3.6,0-7.2-0.2-10.7-0.6C38.5,217.6,62.1,225,87.4,225c82.5,0,127.7-68.4,127.7-127.7c0-1.9,0-3.9-0.1-5.8
		C223.7,85.2,231.3,77.3,237.3,68.3z M209.7,84.2l-3.9,2.8l0.2,4.9c0.1,1.8,0.1,3.6,0.1,5.4c0,28.8-11.2,58-30.6,80.1
		C160,195,132.1,216,87.4,216c-11.2,0-22.4-1.6-33-4.7c13.1-3.4,25.3-9.4,36.2-18l19.9-15.6l-25.3-0.5c-10.6-0.2-20.3-5-26.8-12.8
		c2.5-0.3,5-0.8,7.4-1.5l-0.6-17.5c-12.2-2.4-21.9-11-26.3-22.1c2.8,0.6,5.7,0.9,8.6,1l31.4,1l-26.1-17.5c-10-6.7-16-17.8-16-29.9
		c0-1.9,0.1-3.7,0.4-5.6c23.7,23.2,55.3,37.2,88.7,38.9l11.9,0.6l-2.7-11.6c-0.6-2.6-0.9-5.4-0.9-8.2c0-19.8,16.1-35.9,35.9-35.9
		c9.9,0,19.4,4.1,26.2,11.3l3.4,3.6l4.9-1c1-0.2,2.1-0.4,3.1-0.7l4.4,12.9C211.3,83.1,210.5,83.7,209.7,84.2z"/>
</g>
</svg>
