<?xml version="1.0" encoding="utf-8"?>
<!-- Generator: Adobe Illustrator 25.2.3, SVG Export Plug-In . SVG Version: 6.00 Build 0)  -->
<svg version="1.1" id="Layer_2_1_" xmlns="http://www.w3.org/2000/svg" xmlns:xlink="http://www.w3.org/1999/xlink" x="0px" y="0px"
	 viewBox="0 0 256 256" style="enable-background:new 0 0 256 256;" xml:space="preserve">
<style type="text/css">
	.st0{fill:#FFFFFF;}
</style>
<g>
	<path class="st0" d="M129.6,238.4c-61.4,0-111.3-49.8-111.3-111.2S68.1,15.9,129.5,15.9c61.5,0,111.4,49.9,111.3,111.5
		C240.8,188.5,190.9,238.3,129.6,238.4z M51.4,121.5c4.8,0,9.6-0.1,14.3,0c2.5,0.1,3.6-0.9,3.8-3.4c0.6-10.9,2.6-21.6,6.1-32
		c0.5-1.6,0.1-2.4-1.5-3.1c-7.1-3-14-6.4-20.4-10.6c-2-1.3-3.1-0.8-4.3,1c-2.9,4.5-5.6,9.2-7.8,14.2c-4.4,9.6-6.8,19.8-8.1,30.3
		c-0.3,2.7,0.7,3.7,3.5,3.7C41.8,121.4,46.6,121.5,51.4,121.5z M207.7,121.5c5,0,10-0.1,15,0c2.3,0,3.1-0.9,3-3.2
		c-0.1-2.6-0.8-5.1-1.2-7.7c-2.1-13.3-7.2-25.5-14.5-36.8c-1.4-2.1-2.6-2.7-4.9-1.1c-6.3,4.1-13,7.4-19.9,10.3
		c-1.7,0.7-2.2,1.5-1.6,3.3c3.5,10.3,5.5,20.9,6.1,31.7c0.1,2.6,1.3,3.6,4,3.5C198.3,121.4,203,121.5,207.7,121.5z M51.2,132.7
		c-4.3,0-8.5,0-12.8,0c-5,0-5.4,0.3-4.7,5.4c1.3,9.3,3.5,18.4,7.2,27c2.4,5.5,5.2,10.9,8.7,15.9c0.9,1.3,1.7,2.3,3.5,1.1
		c6.7-4.3,13.7-7.8,21-11c1.3-0.6,1.6-1.3,1.2-2.7c-3.3-10.6-5.4-21.3-5.9-32.4c-0.1-2.5-1.4-3.4-3.8-3.3
		C60.8,132.8,56,132.7,51.2,132.7z M225.8,135.3c0.4-2-1.1-2.6-3.9-2.6c-9.2,0.1-18.3,0-27.5,0c-4.1,0-4.5,0.3-4.7,4.3
		c-0.5,10.5-2.6,20.6-5.6,30.6c-0.6,2-0.3,3,1.7,3.8c6.8,2.9,13.4,6.2,19.6,10.2c2.2,1.4,3.3,0.8,4.5-1c3-4.5,5.6-9.3,7.8-14.2
		C222,156.8,224.3,146.8,225.8,135.3z M101.8,132.7c-5.8,0-11.7,0-17.5,0c-4.5,0-5,0.2-4.3,4.8c1.2,8.2,1.9,16.5,4.5,24.5
		c1.6,4.9,1.6,4.9,6.5,3.4c9.6-3,19.5-4.4,29.4-5.1c2.9-0.2,3.7-1.2,3.7-3.9c-0.1-6.7-0.2-13.3,0-20c0.1-2.9-1.1-3.8-3.9-3.7
		C114,132.8,107.9,132.7,101.8,132.7z M157.4,132.7c-6.3,0-12.7,0-19,0c-1.9,0-3.2,0.4-3.2,2.7c0,7.4,0,14.8,0,22.2
		c0,1.9,0.9,2.6,2.7,2.6c2.1,0.1,4.2,0.2,6.2,0.5c8.8,1.3,17.7,2.4,26.3,5.3c1.9,0.6,3.1,0.3,3.8-1.8c3-9.2,4.1-18.7,5.2-28.2
		c0.3-2.4-0.7-3.4-3.2-3.3C169.9,132.8,163.7,132.7,157.4,132.7z M101.6,121.5c6.3,0,12.7,0,19,0c1.6,0,3.3-0.1,3.3-2.3
		c0-7.6,0-15.2,0-22.8c0-1.5-0.7-2.2-2.3-2.3c-11.1-0.8-22.1-2.4-32.8-5.8c-2.1-0.7-3,0-3.6,2c-3,8.9-4,18.3-5.4,27.5
		c-0.4,2.6,0.5,3.8,3.3,3.7C89.4,121.4,95.5,121.5,101.6,121.5z M157.4,121.5c6.1,0,12.3-0.1,18.4,0.1c3.1,0.1,3.9-1.2,3.5-3.9
		c-1.4-8.7-2.2-17.6-5-26c-1.4-4.1-1.4-4.2-5.4-3c-10,3.1-20.3,4.6-30.7,5.3c-2.3,0.2-3.1,1-3.1,3.2c0.1,7,0.1,13.9,0,20.9
		c0,2.6,1,3.5,3.5,3.4C144.9,121.5,151.1,121.5,157.4,121.5z M135.2,197.1c0,7.8,0,15.6,0,23.4c0,0.8-0.2,1.8,0.7,2.3
		c1.1,0.6,1.7-0.4,2.4-1c2-1.9,3.9-3.7,5.8-5.7c10.3-10.6,18.3-22.8,24.4-36.3c0.8-1.8,1.3-3.1-1.4-3.9c-9.2-2.7-18.6-4.1-28.2-5
		c-2.7-0.2-3.8,0.7-3.7,3.5C135.2,181.9,135.2,189.5,135.2,197.1z M124,197.4c0-7.5,0-15,0-22.5c0-3.8-0.4-4.3-4.1-4
		c-9,0.8-18,2-26.7,4.7c-3.7,1.1-3.8,1.3-2.3,4.6c7.2,15.7,17,29.5,29.8,41.2c0.7,0.7,1.4,1.9,2.6,1.2c1-0.5,0.7-1.7,0.7-2.6
		C124,212.6,124,205,124,197.4z M135.4,31.1c-0.1,1.5-0.3,2.1-0.3,2.7c0,15.4,0,30.7-0.1,46.1c0,3.1,1.4,3.7,4,3.4
		c9.1-0.9,18.1-2.2,27-4.7c3-0.8,3-1.9,1.9-4.3c-5.1-10.6-11.3-20.6-18.9-29.6C145,40.1,140.6,35.8,135.4,31.1z M123.4,31.7
		c-0.4,0.2-0.6,0.2-0.7,0.3c-13.6,12.1-24.2,26.5-31.8,43.1c-0.9,2-0.3,2.7,1.6,3.3c9.1,2.8,18.5,4,27.9,5c3.1,0.3,3.7-1.2,3.6-3.9
		c-0.1-15,0-30,0-44.9C124,33.7,124.3,32.7,123.4,31.7z M154.8,33.9c0,1.6,0.6,2.1,1,2.6c9.4,10.8,16.9,22.7,22.6,35.7
		c0.8,1.8,1.9,1.6,3.3,1c5.9-2.7,11.7-5.5,17.2-8.8c2.2-1.4,2-2.3,0.3-3.9c-9.2-9.4-19.8-16.8-31.9-22
		C163.3,36.7,159.2,35.4,154.8,33.9z M104.9,34.4c-1-0.1-1.3-0.2-1.6-0.1c-17,5-31.7,13.9-44,26.7c-1.5,1.6-0.5,2.2,0.7,3.1
		c5.5,3.5,11.5,6.3,17.4,9.1c1.9,0.9,2.7,0.3,3.5-1.6C84.7,63,89.4,55,94.8,47.2C97.9,42.9,101.5,39,104.9,34.4z M155,220.1
		c17.8-5.1,32.5-14.1,44.9-26.9c1.5-1.6,0.5-2.3-0.8-3c-5.3-3.4-10.9-6-16.5-8.7c-2.2-1-3.2-0.7-4.2,1.6c-3.7,8.7-8.3,17-14,24.6
		C161.5,211.7,158.4,215.6,155,220.1z M104,220.3c-0.4-0.9-0.4-1.2-0.6-1.4c-9.6-11-17.3-23.1-23-36.5c-0.8-2-2-1.7-3.4-1
		c-5.5,2.5-10.9,5.1-16,8.3c-3.2,2-3.2,2-0.4,4.8c8.9,9,19.2,16.2,30.9,21.2C95.4,217.4,99.5,218.6,104,220.3z"/>
</g>
</svg>
