<?xml version="1.0" encoding="utf-8"?>
<!-- Generator: Adobe Illustrator 25.2.3, SVG Export Plug-In . SVG Version: 6.00 Build 0)  -->
<svg version="1.1" id="CV" xmlns="http://www.w3.org/2000/svg" xmlns:xlink="http://www.w3.org/1999/xlink" x="0px" y="0px"
	 viewBox="0 0 256 256" style="enable-background:new 0 0 256 256;" xml:space="preserve">
<style type="text/css">
	.st0{fill:#FFFFFF;}
</style>
<g>
	<path class="st0" d="M13.6,147.1c0.4-1.5,0.7-3.5,1.3-5.4C26.7,105.8,38.4,70,50,34.1c2.1-6.4,5.7-10.9,13.2-9.3
		c5.1,1.1,7.1,5.4,8.5,10C78,53.9,84.5,73,90.3,92.3c2.2,7.3,5.7,9.9,13.4,9.7c17.8-0.6,35.7-0.4,53.5-0.1c5.9,0.1,8.8-1.9,10.6-7.6
		c6.1-19.5,12.5-38.9,18.8-58.3c1.8-5.7,3.9-11.3,11.1-11.5c7.6-0.2,9.8,5.7,11.8,11.7c11.2,34.5,22.5,68.9,33.7,103.4
		c3.6,11.2,2.4,15.4-7,22.2c-33.1,24-66.3,47.9-99.2,72.1c-5.7,4.1-9.9,3.7-15.4-0.2c-33-24.1-66.1-48.1-99.3-72
		C17.4,158.1,13.8,154,13.6,147.1z M128.7,208.8c1.5-1.8,2.2-2.4,2.4-3.1c9.3-28.4,18.6-56.9,28-85.3c2-6-1.2-7-6.1-7
		c-15.5,0.1-31.1,0.2-46.6-0.1c-7.2-0.1-8.3,2.5-6.2,8.9c5.9,17.4,11.4,35,17.1,52.5C121,185.9,124.7,196.9,128.7,208.8z M147.5,196
		c0.5,0.3,0.9,0.5,1.4,0.8c21.2-27.2,42.5-54.4,65-83.2c-13.1,0-23.7,0-34.3,0c-4.3,0-5.9,2.7-7.1,6.3
		C164.2,145.2,155.8,170.6,147.5,196z M45,113.6c22,28.2,42.6,54.4,63.8,81.5c0.7-2.3,1.1-2.9,1-3.3c-7.9-24.6-15.9-49.2-23.9-73.7
		c-1.1-3.3-3.3-4.4-6.5-4.4C68.7,113.6,58.2,113.6,45,113.6z M93.4,197.8c0.4-0.3,0.8-0.6,1.2-0.9c-15.6-19.9-31.1-39.9-46.9-59.6
		c-3.8-4.8-6.8-14-12.2-12.9c-5.1,1-4.5,10.9-7.1,16.5c-2.4,5.2-1.5,8.9,3.5,12.4C52.4,168,72.9,183,93.4,197.8z M164.4,197.1
		c0.3,0.3,0.6,0.6,0.8,0.9c17.1-12.4,34.2-24.7,51.2-37.1c17.4-12.7,17.2-12.6,10-32.9c-2-5.6-3.6-5.8-7.1-1.4
		C201.1,150.1,182.7,173.6,164.4,197.1z M198.1,41.2c-6.5,19.6-12.2,37.3-18.1,55c-1.1,3.4-0.7,5.6,3.6,5.6c9.5-0.1,19,0,28.5,0
		c3.9,0,5.1-1.8,3.9-5.5C210.2,78.5,204.5,60.9,198.1,41.2z M60.8,41.3c-6.3,19.2-11.7,36.2-17.4,53c-1.7,5-1.3,7.7,4.9,7.5
		c8.6-0.2,17.3-0.2,25.9,0c4.9,0.1,6.1-1.7,4.6-6.2C72.9,78.2,67.2,60.7,60.8,41.3z"/>
</g>
</svg>
