<?xml version="1.0" encoding="utf-8"?>
<!-- Generator: Adobe Illustrator 25.2.3, SVG Export Plug-In . SVG Version: 6.00 Build 0)  -->
<svg version="1.1" id="CV" xmlns="http://www.w3.org/2000/svg" xmlns:xlink="http://www.w3.org/1999/xlink" x="0px" y="0px"
	 viewBox="0 0 256 256" style="enable-background:new 0 0 256 256;" xml:space="preserve">
<style type="text/css">
	.st0{fill:#FFFFFF;}
</style>
<g>
	<path class="st0" d="M74.5,21.1c24.7,0,49.5,0,74.2,0c3.4,2.1,7.1,3.8,10.1,6.5c15.1,13.7,29.5,28.1,43.2,43.3
		c4.4,4.9,6.4,10.5,6.4,17.3c-0.2,36.8-0.2,73.6,0,110.3c0,6.3-1.9,11.8-5.2,17c-5,7.7-12.5,11.7-21,14.2c-35.9,0-71.7,0-107.6,0
		c-17.4-4.2-27.2-17.9-27-37.4c0.6-45.5,0.2-91.1,0.2-136.6c0-3.7,0.1-7.4,1.2-11C52.8,31.9,61.9,24.6,74.5,21.1z M64.6,125.3
		c0,23.3-0.1,46.6,0,70c0,11,6.4,17.5,17.2,17.5c30.9,0.1,61.8,0.1,92.7,0c10.7,0,16.5-5.9,16.9-16.7c1.1-33.5,0.3-67-0.1-100.5
		c-0.1-7.1-2.4-9.2-9.7-9.3c-8.8-0.1-17.6-0.1-26.4-0.3c-8.7-0.2-11.3-2.9-11.5-11.5c-0.2-9.1-0.4-18.2-0.7-27.3
		c-0.3-7.6-2-9.3-9.5-9.3c-16.7,0-33.4,0-50,0.1c-13,0.1-18.9,6.1-18.9,19.1C64.6,79.9,64.6,102.6,64.6,125.3z"/>
	<path class="st0" d="M107.5,86.1c-5.7,0-11.4,0.2-17.1,0c-7.7-0.3-10.5-3.3-10.6-10.9c0-1.8-0.1-3.7,0.1-5.5c0.3-4.9,2.8-8,7.6-8.4
		c12.6-0.9,25.3-0.5,37.9-0.4c2,0,3.1,1.1,3.1,3.2c0.1,6.5-0.2,12.9,1.2,19.3c0.6,2.9-2,2.8-3.7,2.8
		C119.9,86.2,113.7,86.1,107.5,86.1C107.5,86.1,107.5,86.1,107.5,86.1z"/>
	<path class="st0" d="M144,158.2c-8.9,0-17.9-0.1-26.8,0c-3.8,0.1-5.6-1.3-5.6-5.3c0.1-14.2-0.7-12.2,11.6-12.2
		c15.7-0.1,31.4-0.1,47.2,0c6,0,6.4,0.4,6.3,6.3c-0.1,12,1.8,11.3-11,11.3C158.5,158.3,151.2,158.3,144,158.2
		C144,158.3,144,158.2,144,158.2z"/>
	<path class="st0" d="M144,126c-9.1,0-18.2-0.1-27.3,0c-3.5,0-5.1-1.3-5.1-4.8c-0.1-14.9-0.5-12.1,11.5-12.2
		c15.6-0.2,31.1-0.1,46.7,0c6.6,0,6.9,0.2,6.9,6.6c0,11.3,1,10.4-10.5,10.4C158.8,126.1,151.4,126,144,126C144,126,144,126,144,126z
		"/>
	<path class="st0" d="M144,172.9c9.3,0,18.5,0.1,27.8,0c3.6,0,5,1.4,4.9,4.9c-0.1,14.9,1.2,12.2-11.8,12.3
		c-15.9,0.2-31.8-0.1-47.7,0.1c-4.3,0.1-5.7-1.5-5.7-5.6c0.1-14.2-0.4-11.5,11.1-11.7C129.8,172.8,136.9,172.9,144,172.9
		C144,172.9,144,172.9,144,172.9z"/>
	<path class="st0" d="M88.2,140.7c8.5,0,8.5,0,8.5,8.8c0,8.8,0,8.8-8.4,8.8c-8.6,0-8.6,0-8.6-9C79.7,140.7,79.7,140.7,88.2,140.7z"
		/>
	<path class="st0" d="M88.3,109c8.4,0,8.4,0,8.4,8.3c0,8.8,0,8.8-8.5,8.8c-8.6,0-8.6,0-8.6-9C79.7,109,79.7,109,88.3,109z"/>
	<path class="st0" d="M79.7,181.5c0-8.6,0-8.6,8.5-8.6c8.5,0,8.5,0,8.5,8.3c0,9,0,9-9.1,9c-0.8,0-1.6-0.1-2.3,0
		c-4.1,0.5-6.2-1.1-5.6-5.4C79.8,183.7,79.7,182.6,79.7,181.5z"/>
</g>
</svg>
