<?xml version="1.0" encoding="utf-8"?>
<!-- Generator: Adobe Illustrator 25.2.3, SVG Export Plug-In . SVG Version: 6.00 Build 0)  -->
<svg version="1.1" id="experiment" xmlns="http://www.w3.org/2000/svg" xmlns:xlink="http://www.w3.org/1999/xlink" x="0px" y="0px"
	 viewBox="0 0 256 256" style="enable-background:new 0 0 256 256;" xml:space="preserve">
<style type="text/css">
	.st0{fill:#FFFFFF;}
</style>
<g>
	<path class="st0" d="M108.5,36.2c5.9,0,11.9,0,17.8,0c2.6,0,3.7-0.5,2.7-3.5c-1.1-3.3-0.5-6.5,2.6-8.6c2.6-1.8,5.3-1.9,8-0.4
		c3.5,2,4.4,5.3,3.3,8.7c-1.2,3.6,0.4,3.9,3.2,3.8c4.6-0.1,9.2-0.1,13.8,0c5.8,0.2,10,2.8,12.6,8.1c2.5,5.2,1.5,10-1.8,14.4
		c-1.6,2.2-2.4,4.4-2.4,7.1c0.1,7.7,0.1,15.4,0,23.1c0,2.7,0.8,4.5,3.2,6c18.7,11.8,30.2,28.5,35.4,50.1c2.7,11.2,2.8,22.3,0.9,33.3
		c-2.4,14.2-8.1,27.2-17.7,38.5c-13,15.3-29.5,24.5-48.8,28.1c-17.7,3.3-35.2,0.7-51.4-7.8c-13-6.9-24-16-31.8-28.6
		c-5.5-9-10-18.8-11.5-29.1c-1.6-10.6-1.7-21.5,0.4-32.2c2.2-11,6.3-21.1,12.2-30.6c4.6-7.4,10.3-13.9,17.2-19.2
		c3.4-2.6,4.9-5.6,5-9.5c0.1-7.7,0.6-15.4-0.4-23.1c-0.3-2.3-0.9-4.3-2.3-6.3c-6.4-9.2-1.3-20.9,9.9-22c6.6-0.7,13.2-0.1,19.8-0.1
		C108.5,36.3,108.5,36.2,108.5,36.2z M92.2,50.2c2.8,1.8,3.3,4,3.3,6.4c0,13.2,0,26.5,0,39.7c0,2.6-0.9,4.7-3.1,6.2
		c-2.7,1.8-5.3,3.8-7.7,5.9c-12.5,10.8-21,24.2-24.2,40.5c-2.8,14.3-2.6,28.4,3.6,41.9c11.3,24.4,30.2,38.8,57.1,42
		c11.1,1.3,22-0.1,32.1-4.6c19.2-8.5,33-22.6,39.7-42.9c5.3-16.1,4.6-32.2-2-47.8c-6.3-14.8-16.8-26-30.9-33.7
		c-4-2.2-5.4-5.2-5.3-9.6c0.1-11.5,0-23,0.1-34.4c0-3.3,0.2-6.7,2.5-9.6C135.7,50.2,114.4,50.2,92.2,50.2z"/>
	<path class="st0" d="M111.3,4.5c6.1,0,10.8,4.5,10.8,10.2c0,5.9-4.8,10.3-11.2,10.3c-5.8,0-10.7-4.8-10.5-10.4
		C100.5,8.9,105.3,4.4,111.3,4.5z"/>
	<path class="st0" d="M126.2,226.9c-15.2,0.3-29.5-5.4-41.4-16.5c-12-11.2-18.2-25.6-19.1-42.1c-0.2-2.9,1.7-4.8,4.5-4.7
		c5.6,0.2,10.9-2,16.5-1.8c2.3,0.1,3.7-1.2,4.9-2.9c5.6-7.9,13.9-7.7,18.8,0.5c1.7,2.8,3.9,3,6.2,1.9c4.7-2.3,8.7-2.5,12.2,2.1
		c0.6,0.8,1.8,1.2,2.8,1.4c16.4,2.9,32.9,4.1,49.5,1.3c6.6-1.1,8.4,0,7.6,6.8c-1.8,15.6-8.7,28.8-20.7,39.1
		C156.4,222.1,142.9,227,126.2,226.9z M160.4,187.4c0.1,2.6,1.2,4.7,3.8,4.9c2.8,0.1,4.4-2,4.6-4.6c0.3-2.7-1.8-4.3-4.2-4.5
		C162,183,160.5,184.8,160.4,187.4z"/>
	<path class="st0" d="M152.1,155.4c-3.1-0.1-4.8-1.7-4.6-4.8c0.1-3.2,2.3-4.3,5.2-4.2c2.9,0,4.5,1.6,4.8,4.4
		C157.8,153.5,155.3,155.5,152.1,155.4z"/>
</g>
</svg>
