<?xml version="1.0" encoding="utf-8"?>
<!-- Generator: Adobe Illustrator 25.2.3, SVG Export Plug-In . SVG Version: 6.00 Build 0)  -->
<svg version="1.1" id="experiment" xmlns="http://www.w3.org/2000/svg" xmlns:xlink="http://www.w3.org/1999/xlink" x="0px" y="0px"
	 viewBox="0 0 256 256" style="enable-background:new 0 0 256 256;" xml:space="preserve">
<style type="text/css">
	.st0{fill:#FFFFFF;}
</style>
<g>
	<path class="st0" d="M237.8,129.1c0.8,21-5.7,39.5-16.8,56.5c-0.9,1.3-1.8,2.6-2.9,3.8c-2.6,2.6-5.6,4.1-9,1.5
		c-3.2-2.5-3.3-5.8-1.4-9.1c4.5-7.6,9.2-14.9,12.1-23.4c8.5-24.9,6.2-48.8-6.3-71.8c-1.9-3.6-4.2-6.9-6.2-10.5
		c-1.8-3.3-0.9-6.2,2-8.4c2.8-2.1,5.6-1.2,8,1c4.2,3.9,6.8,9,9.3,14C234.3,97.3,238.6,112.9,237.8,129.1z"/>
	<path class="st0" d="M20.2,129.6c-0.8-21,5.7-39.5,16.8-56.5c0.9-1.3,1.8-2.6,2.9-3.8c2.6-2.6,5.6-4.1,9-1.5
		c3.2,2.5,3.3,5.8,1.3,9.1c-4.5,7.6-9.2,14.9-12.1,23.4c-8.5,24.9-6.2,48.8,6.3,71.8c1.9,3.6,4.2,6.9,6.2,10.5
		c1.8,3.3,0.9,6.2-2,8.4c-2.8,2.1-5.6,1.2-8-1c-4.2-3.9-6.8-9-9.3-14C23.7,161.4,19.4,145.9,20.2,129.6z"/>
	<path class="st0" d="M105.8,129.4c0-12.7,10.7-23.6,23-23.4c12.6,0.2,23.2,11,23.2,23.5c0,12.6-10.7,22.8-23.6,22.7
		C115.7,152.1,105.9,142.2,105.8,129.4z"/>
	<path class="st0" d="M47.6,127.8c-0.6-11.1,3.1-22.7,9.5-33.7c1-1.7,2.1-3.5,3.4-5c2.6-3,5.7-4.8,9.4-2.1c3.4,2.5,3.8,5.8,1.4,9.5
		c-14.4,21.9-14.3,43.9,0,65.9c2.4,3.7,2.2,6.9-1.5,9.3c-3.9,2.6-6.8,0.5-9.4-2.4C52.8,160.6,47.6,144.5,47.6,127.8z"/>
	<path class="st0" d="M210.4,130c-1.1,13.1-3.7,26.1-11.7,37.4c-2.3,3.3-4.9,7.1-9.9,4.1c-4.9-2.9-4.3-6.9-1.6-11
		c9.9-15.1,11.9-31.3,6.8-48.6c-1.6-5.3-4.4-9.9-7.3-14.5c-2.5-4.1-2.8-7.8,1.5-10.6c4.3-2.8,7.2,0.1,9.6,3.4
		C206.3,102,209.6,115.4,210.4,130z"/>
	<path class="st0" d="M74.9,129.2c-0.7-8,2.1-15,6.1-21.7c2.3-3.9,5.8-6,10.2-3.6c4.5,2.4,3.5,6.4,1.5,9.9
		c-5.9,10.3-5.5,20.5-0.1,30.8c2,3.9,3,8-1.7,10.5c-4.6,2.5-7.8-0.4-10-4.1C76.9,144.3,74.2,137.2,74.9,129.2z"/>
	<path class="st0" d="M182.9,127.1c0.1,10-2.1,17.7-6.8,24.6c-2.4,3.6-5.6,5.6-9.7,3.4c-4.3-2.3-4.2-6.3-1.9-9.9
		c6.9-10.6,6.4-21.1,0.2-31.8c-1.9-3.4-2.9-7,1.3-9.4c4.3-2.6,8-0.7,10.4,3.1C180.4,113.8,182.9,120.9,182.9,127.1z"/>
</g>
</svg>
