<?xml version="1.0" encoding="utf-8"?>
<!-- Generator: Adobe Illustrator 25.2.3, SVG Export Plug-In . SVG Version: 6.00 Build 0)  -->
<svg version="1.1" id="backend" xmlns="http://www.w3.org/2000/svg" xmlns:xlink="http://www.w3.org/1999/xlink" x="0px" y="0px"
	 viewBox="0 0 256 256" style="enable-background:new 0 0 256 256;" xml:space="preserve">
<style type="text/css">
	.st0{fill:#FFFFFF;}
</style>
<g>
	<path class="st0" d="M29,125.7c0-24.8,0.3-49.6-0.2-74.4c-0.2-9,3.6-15,10.7-19.6c7.4-4.8,15.6-7.5,24.1-9.6
		c27.1-7,54.7-8,82.3-6.5c19.7,1.1,39.4,3.6,57.9,11.2c6.7,2.8,13.1,6.1,17.5,12.2c1.9,2.6,2.8,5.4,2.8,8.6c0,52.1,0,104.3,0,156.4
		c0,5.1-2.4,8.9-6,12.2c-6.6,6.2-14.9,9.3-23.4,11.8c-13.6,4-27.6,5.9-41.7,7.3c-14.3,1.4-28.6,1.5-42.8,0.8
		c-20.8-1-41.4-3.4-61-11.3c-5.1-2.1-10-4.6-14.1-8.4c-4-3.6-6.2-7.9-6.2-13.5C29,177.2,29,151.4,29,125.7z M126.7,172.4
		c20.8-0.2,41.5-1.8,61.7-7.1c7.2-1.9,14.2-4.2,20.4-8.6c2.4-1.8,3.5-4,3.5-7c0-6.3,0.4-12.5,0.3-18.8c-0.1-3.8-0.2-7.5,0.1-11.3
		c0.2-2.5-0.3-3.8-3.2-2.3c-2.8,1.5-5.8,2.7-8.8,3.8c-17.9,6.6-36.6,9.1-55.4,10c-21.6,1-43.1,0.9-64.6-2.9
		c-12.8-2.3-25.3-5-37-10.6c-3.2-1.5-3.5-1.1-3.4,2.5c0.2,8.2,0.8,16.4,0.2,24.6c-0.6,9.2,1.1,11.5,9.9,15.6
		c12.2,5.8,25.4,8.2,38.7,9.9C101.6,171.6,114.1,172.6,126.7,172.4z M127.3,120.2c19.4-0.7,39.7-1.8,59.5-6.9
		c7.1-1.8,14.1-4.1,20.3-8c3.6-2.2,5.6-5.1,5.4-9.8c-0.2-7.4,0.1-14.8-0.1-22.2c-0.1-2.3,0.5-4.5,0.1-6.8c-0.4-2-1.2-2.5-3-1.6
		c-2.1,1.1-4.3,2.2-6.5,3c-19.5,7.6-40.1,9.8-60.7,11c-19.4,1.1-38.8,0.3-58.1-2.6c-13.7-2.1-27.2-4.9-39.8-11
		c-3.6-1.8-4.2-1.3-4,2.9c0.2,8.3,1,16.7,0.2,24.9c-0.7,7.6,2.8,11.2,8.8,14.1c10.2,5,21.1,7.5,32.1,9.3
		C96.3,118.9,111.3,119.8,127.3,120.2z M124.2,224.6c21.3,0,40.8-1.2,59.9-5.8c8-1.9,15.9-4.2,23-8.6c3.1-1.9,5.8-4.3,5.6-8.4
		c-0.2-10.1-0.3-20.3,0.1-30.4c0.1-3-1-3-3.2-1.8c-3.7,2.1-7.7,3.5-11.7,4.8c-15.2,4.9-30.8,7.1-46.7,8.5c-24.5,2.1-48.8,1.1-73-2.9
		c-12.1-2-23.9-4.9-34.9-10.5c-3-1.6-2.9,0.3-2.8,2.4c0,8.9,0.3,17.8-0.1,26.6c-0.3,5.8,1.8,9.6,6.7,12.3c8.8,4.8,18.4,7.4,28.2,9.3
		C91.9,223.4,108.8,224.8,124.2,224.6z M126.5,26.9c-6.5,0.1-13,0.3-19.5,0.6c-15.1,0.7-30,2.9-44.5,7c-6.1,1.7-12,3.8-17.3,7.3
		c-5.5,3.6-5.5,7.1,0,10.7c3.8,2.5,8,4.4,12.4,5.8c19.4,6.3,39.5,8.5,59.7,9.1c22.2,0.7,44.3-0.7,66-5.6c8.4-1.9,16.6-4.3,24-8.9
		c6.3-3.9,6.3-7.5,0-11.5c-1-0.6-1.9-1.2-3-1.7c-8.4-4.1-17.3-6.6-26.4-8.4C161,28,143.8,26.7,126.5,26.9z"/>
	<path class="st0" d="M184.1,152.5c-4.5-0.1-8.4-4.2-8.2-8.8c0.1-4.4,4.2-8.3,8.5-8.2c4.4,0.1,8.2,4.1,8.2,8.5
		C192.5,148.8,188.7,152.6,184.1,152.5z"/>
	<path class="st0" d="M192.5,91.8c0,4.7-3.5,8.1-8.3,8.1c-4.9,0-8.4-3.6-8.4-8.4c0-4.4,3.9-8.3,8.3-8.3
		C188.8,83.2,192.6,87.1,192.5,91.8z"/>
	<path class="st0" d="M184.1,204.8c-4.8,0-8.4-3.7-8.3-8.5c0.1-4.5,4-8.2,8.5-8.1c4.8,0.1,8.3,3.8,8.2,8.6
		C192.4,201.5,188.9,204.8,184.1,204.8z"/>
</g>
</svg>
