<?xml version="1.0" encoding="utf-8"?>
<!-- Generator: Adobe Illustrator 25.2.3, SVG Export Plug-In . SVG Version: 6.00 Build 0)  -->
<svg version="1.1" id="VR" xmlns="http://www.w3.org/2000/svg" xmlns:xlink="http://www.w3.org/1999/xlink" x="0px" y="0px"
	 viewBox="0 0 256 256" style="enable-background:new 0 0 256 256;" xml:space="preserve">
<style type="text/css">
	.st0{fill:#FFFFFF;}
</style>
<g>
	<path class="st0" d="M128.3,54.5c14.9-0.2,30.5,0.7,46.1,1.5c11.4,0.5,22.7,1.9,34,3.2c13.2,1.5,23.3,10.9,25.9,24
		c4,20.8,4.5,41.8,3.1,62.9c-0.6,8.8-1.7,17.5-3.3,26.1c-2.2,11.5-12.4,21-24,22.6c-10.9,1.5-21.7,2.8-32.7,3.5
		c-6.4,0.4-11.5-2.7-16.2-6.6c-6.6-5.6-12.2-12.4-18.4-18.5c-2.7-2.7-5.5-5.2-8.8-7.3c-3.7-2.3-7.4-2.3-10.9,0.3
		c-6.7,4.9-12.1,11.2-17.7,17.3c-3.5,3.8-7.1,7.4-11.2,10.4c-5.1,3.9-10.8,5.1-17.4,4.4c-7.6-0.9-15.3-1.9-23-2.4
		c-9.6-0.7-18.1-3.7-24.2-11.5c-3-3.8-4.9-8.1-5.9-12.9c-3.9-19.1-4.4-38.4-3.7-57.7c0.4-10.5,1.4-21,3.7-31.3
		c2.7-11.9,10.1-19.4,22-22.4c7.4-1.9,15-2.3,22.5-2.9C88,55.5,107.8,54.4,128.3,54.5z M227.4,126.1c-0.4-4.7-0.4-11-0.8-17.2
		c-0.4-6.3-1.2-12.5-2.1-18.8c-2-14.7-9-19.4-21.4-20.5c-9.3-0.8-18.6-1.7-27.9-2.3c-15.1-1.1-30.1-2-45.2-2.1
		c-18.3-0.1-36.7,1.2-55,2.5c-8.3,0.6-16.6,1.5-24.9,2.6c-8.2,1.1-14.3,7-15.7,14.4c-2.7,13.9-3.7,28-3.8,42.1
		c0,10.6,0.4,21.3,2,31.8c0.6,4,0.9,8,2,11.9c1.9,7,6.2,12.1,13.5,13.5c10.8,2,21.7,3.2,32.7,3.6c3.1,0.1,5.8-0.9,8.1-2.9
		c2.3-2.1,4.6-4.3,6.8-6.5c5.9-5.9,11.7-12,17.7-17.8c5.1-5,11.2-7.9,18.6-6.7c6.1,0.9,10.6,4.8,14.9,8.8
		c7.4,6.9,13.4,15.1,21.2,21.6c2.9,2.4,6,3.7,9.8,3.6c8.5-0.2,16.8-1.7,25.2-2.5c2.7-0.3,5.4-0.6,8-1.4c6.4-2,10.7-6.3,12.1-12.9
		C226.3,156.6,227,142.1,227.4,126.1z"/>
	<path class="st0" d="M81.9,90.9c16.3-0.6,30.6,13.5,30.8,30.1c0.2,17.1-13.7,31.1-30.5,31.2c-16.9,0.1-30.8-13.7-30.9-30.5
		C51.2,104.6,64.8,90.9,81.9,90.9z M101.6,121.3c-0.1-11.2-8.6-19.8-19.7-19.8c-10.7,0-20.2,9.3-19.6,20.3
		c0.6,11.4,8.5,19.5,20,19.4C93.3,141.1,101.7,132.5,101.6,121.3z"/>
	<path class="st0" d="M175.9,90.9c17-0.1,30.7,13.5,30.8,30.4c0.1,17-13.7,30.9-30.7,30.9c-16.5,0-30.5-14-30.7-30.4
		C145,106.6,158,90.4,175.9,90.9z M195.6,121.5c1-10.6-8.5-20-19.4-20c-11-0.1-19.8,8.8-19.8,19.8c0,11.4,8.4,19.7,19.6,19.9
		C186.9,141.4,196.6,131.9,195.6,121.5z"/>
</g>
</svg>
