<?xml version="1.0" encoding="utf-8"?>
<!-- Generator: Adobe Illustrator 25.2.3, SVG Export Plug-In . SVG Version: 6.00 Build 0)  -->
<svg version="1.1" id="AR" xmlns="http://www.w3.org/2000/svg" xmlns:xlink="http://www.w3.org/1999/xlink" x="0px" y="0px"
	 viewBox="0 0 256 256" style="enable-background:new 0 0 256 256;" xml:space="preserve">
<style type="text/css">
	.st0{fill:#FFFFFF;}
</style>
<g>
	<path class="st0" d="M126.8,235c-13.9,0-27.9,0-41.8,0c-12.6,0-20.5-7.8-20.6-20.4c-0.1-17.3-0.2-34.6,0-51.9c0-4.1-1-6.2-5.1-7.8
		c-17.7-7.2-35.3-14.7-53-22.1c-2.2-0.9-4.5-1.9-4.4-4.8c0-2.7,2.2-3.6,4.2-4.5c18.1-7.9,36.2-16,54.4-23.8c2.9-1.2,3.8-2.9,3.8-5.9
		c-0.1-17.4-0.1-34.9,0-52.3c0-2.5,0.1-5,0.5-7.4c1.5-8.7,9.2-15.5,18.5-15.5c28.9-0.2,57.8-0.2,86.7,0c10.8,0.1,18.6,8.7,18.7,19.6
		c0.1,18.4,0.1,36.7-0.1,55.1c0,3.6,0.9,5.5,4.5,7c17.7,7.5,35.3,15.4,52.9,23.2c2.1,0.9,4.6,1.8,4.6,4.7c0.1,3-2.5,3.7-4.6,4.6
		c-17.7,7.5-35.4,15.1-53.3,22.4c-3,1.2-4.1,2.7-4.1,6c0.1,18,0.1,35.9,0.1,53.9c0,12.3-7.9,20.1-20.3,20.1
		C154.6,235,140.7,235,126.8,235z M16.6,127.8c1.8,0.8,2.4,1.2,3.1,1.5c34.6,14.5,69.1,29,103.7,43.5c2.3,0.9,4.2,0.7,6.4-0.2
		c28.6-12,57.1-24,85.7-36c6.6-2.8,13.3-5.7,20.8-8.9c-15.6-6.8-30.2-13.3-44.9-19.7c-2.5-1.1-2.5,0.8-2.5,2.4c0,6.6,0,13.3,0,19.9
		c0,2.9,0,5.7-0.1,8.6c-0.1,2.4-1.1,4.1-3.6,4.3c-2.8,0.2-3.9-1.6-4.2-4.1c-0.2-1.7-0.2-3.4-0.2-5.1c0-31.5,0-63,0-94.5
		c0-9.1-3.8-12.9-12.8-12.9c-21.5,0-43,0-64.4,0c-6.6,0-13.3-0.1-19.9,0c-6.3,0.1-9.9,3.4-10.9,9.6c-0.3,2-0.3,4.2-0.3,6.2
		c0,31.1,0,62.2,0,93.4c0,1.6,0,3.2-0.3,4.6c-0.4,1.8-1.8,2.8-3.8,2.7c-1.8,0-3-0.9-3.5-2.6c-0.3-1.4-0.4-2.8-0.4-4.2
		c0-8.6-0.1-17.2,0-25.8c0.1-3.3-0.9-3.8-3.8-2.4c-8.8,4-17.7,7.7-26.5,11.6C28.6,122.4,23,124.9,16.6,127.8z M126.5,226.9
		c14.1,0,28.1,0.1,42.2,0c7.9,0,12.1-4.3,12.1-12.1c0.1-16.7,0.1-33.3,0-50c0-4.3-0.5-4.5-4.5-2.8c-14.6,6.1-29.3,12.2-43.9,18.5
		c-4.1,1.8-7.7,1.9-11.9,0.1c-14.6-6.3-29.2-12.4-43.9-18.5c-3.9-1.6-4.2-1.5-4.2,2.7c0,16.3-0.1,32.5,0,48.8
		c0,9.2,4.3,13.4,13.4,13.4C99.4,226.9,112.9,226.9,126.5,226.9z"/>
	<path class="st0" d="M92.4,126.5c0-4.8,0.1-9.6,0-14.4c-0.1-3.1,1.1-5.2,3.9-6.5c9.4-4.1,18.8-8.2,28.3-12.3c1.6-0.7,3-0.3,4.5,0.3
		c8.7,3.8,17.4,7.7,26.1,11.4c3.7,1.6,5.4,3.9,5.4,8c-0.2,9.4-0.1,18.7,0,28.1c0,3.6-1.3,5.7-4.7,7.1c-8.7,3.6-17.2,7.4-25.7,11.3
		c-2.4,1.1-4.7,1.2-7.1,0.1c-9-4-18.1-8-27.2-12c-2.5-1.1-3.4-2.9-3.4-5.6C92.4,136.9,92.4,131.7,92.4,126.5z M152.4,128.9
		c0-3.2,0-6.5,0-9.8c0-2.1-0.6-2.9-2.8-1.9c-5.2,2.3-10.5,4.5-15.9,6.6c-2.1,0.8-3.1,2.2-3,4.5c0,6.2,0,12.5,0,18.7
		c0,2.6,1.1,2.9,3.2,1.9c2.4-1.1,4.7-2.2,7.1-3.2C152.4,141,152.4,141,152.4,128.9z M122.2,137.6c0-3.1,0-6.2,0-9.4
		c0-2.1-0.8-3.4-2.8-4.2c-5.2-2.1-10.3-4.2-15.5-6.4c-2.2-0.9-3.5-0.5-3.4,2.2c0.1,6.2,0,12.5,0,18.7c0,1.4,0.4,2.5,1.8,3.1
		c5.7,2.5,11.4,5,17.1,7.5c1.8,0.8,2.7,0.2,2.7-1.8C122.2,144.1,122.2,140.9,122.2,137.6z M144.7,110.5c0-0.3-0.1-0.7-0.1-1.1
		c-5.5-2.4-10.9-4.8-16.4-7.2c-1.1-0.5-2.3-0.7-3.4-0.2c-5,2.2-10,4.3-15,6.6c-0.6,0.2-1.3,0.7-1.4,1.2c-0.2,1,0.8,1.2,1.5,1.4
		c4.7,2,9.4,3.9,14.1,5.8c1.2,0.5,2.6,0.7,3.8,0.2C133.5,115.1,139.1,112.8,144.7,110.5z"/>
	<path class="st0" d="M126.8,32.9c3,0,6,0,9,0c2.4,0,4.1,1,4.3,3.5c0.2,2.5-1.4,3.9-3.8,4.1c-6.5,0.6-13,0.6-19.4,0
		c-2.3-0.2-3.6-1.6-3.6-3.9c0.1-2.5,1.8-3.7,4.1-3.7C120.6,32.8,123.7,32.9,126.8,32.9z"/>
	<path class="st0" d="M126.9,220.5c-3,0-6,0.2-8.9-0.1c-2.6-0.2-4.6-1.4-4.5-4.3c0.1-2.9,2.3-3.9,4.8-4c5.7-0.1,11.4-0.1,17.1,0
		c2.6,0,4.7,1.4,4.7,4.1c0.1,2.9-2.1,4.1-4.6,4.2C132.6,220.7,129.7,220.5,126.9,220.5C126.9,220.5,126.9,220.5,126.9,220.5z"/>
</g>
</svg>
