<?xml version="1.0" encoding="utf-8"?>
<!-- Generator: Adobe Illustrator 25.2.3, SVG Export Plug-In . SVG Version: 6.00 Build 0)  -->
<svg version="1.1" id="app" xmlns="http://www.w3.org/2000/svg" xmlns:xlink="http://www.w3.org/1999/xlink" x="0px" y="0px"
	 viewBox="0 0 256 256" style="enable-background:new 0 0 256 256;" xml:space="preserve">
<style type="text/css">
	.st0{fill:#FFFFFF;}
</style>
<g>
	<path class="st0" d="M174.9,245.4c-4.1,0-8.3-0.4-12.9-1.1c-6.3-1-12.3-3-17.7-6.1c-7.5-4.1-12.3-11.3-16.2-17
		c-4.9-7.3-9-14.9-13.1-22.7c-6.6-12.5-11.9-23.8-16.4-34.6c-2.9-7-0.8-15.6,4.8-19.9c2.1-1.6,5-2.5,8.2-2.5c5.7,0,11,2.6,13.6,6.6
		c2.3,3.6,4.9,7.2,7.4,10.6c0.5,0.7,1.1,1.5,1.6,2.2c0-9,0-17.9,0-26.9c0-9.3,0-18.6,0-27.9c0-9,6.8-16,15.4-16c0.6,0,1.2,0,1.9,0.1
		c7.1,0.8,13.4,8.4,13.5,16.2c0.1,5.1,0,10.2,0,15.2c0,3.2,0,6.5,0,9.7c0,0.2,0,0.7,0,1.1c0.3-0.1,0.7-0.1,1-0.2
		c0.6-0.1,1.3-0.2,2-0.2c2.6,0,4.8,1.1,6.9,2.2c0-6.6,0-13.2,0-19.8v-21c0-12.3,0-24.7,0-37c0-0.5,0-1.4-0.1-1.8c-0.5,0-1.2,0-1.8,0
		h-38.4c-18.2,0-37.8,0-57.3,0l0,0c-1.1,0-1.3,0.1-1.3,0.2l0,0c0,0-0.1,0.3-0.1,1.4c0.1,16.8,0.1,34,0.1,50.5c0,5.4,0,10.9,0,16.3
		v66.5c0,0.7,0,1.6,0.1,2c0.5,0.1,1.3,0.1,2.1,0.1h7.6c3.5,0,7.1,0,10.6,0c4.3,0,7.2,2.4,7.3,5.9c0.1,1.5-0.5,3-1.6,4.2
		c-1.4,1.5-3.4,2.3-5.7,2.3c-3.7,0-7.5,0-11.2,0h-7c-0.8,0-1.6,0-2.1,0.1c-0.1,0.5-0.1,1.3-0.1,2c0,0.7,0,1.5,0,2.2
		c0,1.5,0.1,3.1-0.1,4.6c-0.2,2.6,0.4,4.8,1.8,6.4c1.6,1.8,4.4,2.9,7.5,3c4.2,0.1,8.8,0.1,14.4,0.1c3.3,0-2.6,0,0.7,0
		c3.3,0,6.6,0,9.9,0l4.2,0c3,0,4.8,0.6,6,1.8c0.9,1,1.4,2.4,1.3,4.2c-0.1,5.6-3.9,6.4-7.2,6.4h-11.9c-5.7,0-11.4,0-17.1,0
		c-2.3,0-4.5-0.3-6.9-1c-8.6-2.5-15.4-11.7-15.5-21c-0.1-8.8-0.1-17.8,0-26.4c0-4.4,0-8.8,0-13.2c0-3.7,0-7.4,0-11.1
		c0-3.9,0-7.9,0-11.8c0-10.9,0-21.7,0-32.6c0-13.6,0-27.3,0-40.9c0-4.5,0-9,0-13.6c0-6.5-0.1-13.3,0-19.9c0.1-8.2,3-14.7,8.7-19.3
		c3.8-3.1,8.4-4.8,13.2-4.8l11.7,0c11,0,22.4-0.1,33.6-0.1c13.5,0,24.8,0.1,35.6,0.2c11.9,0.2,21.2,9.9,21.2,22.2
		c0.1,31.6,0.1,62.9,0,92.3c0,2.5,0,2.7,2.1,3c4.5,0.6,8.4,3.7,10.9,8.6c0.5,1,0.6,1,1,1c0.2,0,0.4,0,0.6-0.1
		c0.9-0.1,1.8-0.2,2.7-0.2c4.5,0,8.6,1.8,11.6,5c3.2,3.4,4.8,8.1,4.5,13.3c-0.1,2.3,0,4.6,0.1,6.9c0.1,2.4,0.2,4.8,0.1,7.3
		c-0.2,4.1-0.1,8.4,0,12.5c0.2,7.2,0.3,14.6-1,22c-2.5,13.8-10.6,23.5-24,28.9C189.3,244.2,182.4,245.4,174.9,245.4z M112.4,153.9
		c-0.5,0-1,0.1-1.5,0.4c-1.4,0.9-2.2,1.9-1.2,4.3c0.8,1.9,1.6,3.7,2.5,5.5l0.7,1.5c8.8,19.3,16.9,36.5,27.9,52.2
		c5.7,8.1,13.7,13,24.7,15c2.9,0.5,5.8,0.8,8.8,0.8c4,0,8.2-0.5,12.5-1.5c12.7-2.9,21.3-13.3,21.4-25.8c0.1-11.8,0.1-23.8,0.1-35.3
		l0-9.4c0-2.6-0.6-3.1-2.6-3.2c-0.2,0-0.4,0-0.6,0c-2,0-2.6,0.4-2.8,3c-0.1,1.4-0.1,2.9-0.1,4.4c0,0.9,0,1.8,0,2.7
		c-0.1,4.1-2.5,7-5.9,7c-3.5-0.1-6-3-6-7.1c0-1.9,0-3.9,0-5.8c0-3.4,0-6.9-0.1-10.4c0-2.1-1.7-3.8-3.8-3.8h0c-0.8,0-2.5,0-2.6,3.6
		c0,2,0,4.1,0,6.1c0,2,0,4.1,0,6.2c-0.1,4.4-2.4,6.9-6.3,7c-2.8,0-6-1.2-6.1-7.1c0-2.3,0-4.6,0-6.9c0-3.1,0-6.4,0-9.6
		c0-1.7-0.6-2.8-3.1-2.8l0,0c-2.5,0-2.9,0.6-3,2.8c-0.1,2.5-0.1,5.1,0,7.6c0,1.3,0,2.6,0,3.8c0,7.5-3.8,8.7-6.1,8.7h-0.1
		c-1.8,0-6.1-0.8-6.1-8.7c0-16.7,0-33.4,0-50c0-1.6,0-3.1-0.4-4.4c-0.4-1.3-1.1-2.2-3.4-2.2c-1.2,0-1.9,0.4-2.4,2.3
		c-0.3,1.2-0.3,2.6-0.3,4v0.2c0,10,0,20.1,0,30.1v13.5c0,9,0,18.1,0,27.1c0,1.3,0,5.2-3.7,6.3c-0.9,0.3-1.7,0.4-2.4,0.4
		c-2,0-3.7-0.9-4.9-2.6c-0.9-1.3-1.8-2.5-2.7-3.8c-1-1.4-2-2.9-3.1-4.3c-1.5-2.1-3-4.3-4.5-6.5c-3.2-4.6-6.6-9.4-9.9-14.1
		C114.2,154.4,113.3,153.9,112.4,153.9z M76.2,41.6c0,0,0.2,0.2,1.1,0.2c7.2,0,14.3,0.1,21.5,0.1c8.5,0.1,17.4,0.1,26,0.2h0.9
		c5.7,0,11.4-0.1,17-0.2c3.8,0,7.7-0.1,11.5-0.1c2.5,0,5,0,7.4,0l7.4,0c1.6,0,3.1,0,4.7,0h0.6c0.3,0,0.4,0,0.5,0c0,0,0-0.1,0-0.1
		c0.6-2.7-1.4-7.2-3.8-8.4c-2.1-1.1-4.3-1.6-6.8-1.6h-0.2c-12,0.2-24,0.3-35.7,0.4c-2.9,0-5.9,0-8.8,0c-2.4,0-16.2,0-16.2,0v-0.4H95
		c-0.9,0-1.9,0-2.8,0c-0.9,0-1.9,0-2.8,0c-1.7,0-3.1,0-4.4,0.1c-6,0.2-9,3.2-8.9,9C76.1,41.4,76.2,41.6,76.2,41.6L76.2,41.6z"/>
	<path class="st0" d="M105,142.9c-2.9,0-5.9,0-8.7-0.1c-5.9-0.1-10.8-5.3-10.8-11.6c0-5.3,0-10.6,0-15.1c0-8.1,4.4-12.7,12-12.7
		c0.5,0,0.9,0,1.4,0.1c2.6,0.2,5.1,0.2,7.2,0.2c0.9,0,1.8,0,2.8,0c0.9,0,1.9,0,2.8,0c0.7,0,1.3,0,2,0c6.2,0.1,10.1,3.9,10.2,10.3
		c0,2.1,0,4.2,0,6.3c0,1,0,2,0,2.9c0,0.9,0,1.8,0,2.7c0,2.1,0,4.4,0,6.5c-0.1,5.6-4.5,10.2-9.9,10.4
		C111,142.8,107.9,142.9,105,142.9z M104.8,130c2.2,0,4.4,0,6.5,0.1c0,0,0,0,0,0c0.3,0,0.5,0,0.6-0.1c0-0.1,0.1-0.3,0-0.7
		c-0.1-1.5,0-2.9,0-4.4c0-0.6,0-1.2,0-1.8c0-0.6,0-1.2,0-1.8c0-1.4,0-2.9,0-4.4c0-0.5,0-0.8-0.1-0.8c-0.1,0-0.2-0.1-0.6-0.1h-0.1
		c-1.8,0-3.7,0.1-5.5,0.1c-2.2,0-4.3,0-6.5,0H99c-0.3,0-0.5,0-0.6,0.1c0,0.1,0,0.2,0,0.5c0,4.8,0,9.5,0,13.2c0,0.2,0,0.3,0,0.4
		c0.1,0,0.2,0.1,0.5,0.1h0.8C101.4,130,103.1,130,104.8,130z"/>
	<path class="st0" d="M105,100.4c-3.1,0-6.3,0-9.4-0.1c-4.9-0.1-8.8-3.7-9.5-8.8c-0.7-4.8-0.8-9.9-0.3-15.2c0.1-1.2,0.2-2.4,0.1-3.6
		c-0.2-3.1,0.8-6,2.8-8.2c1.9-2.1,4.5-3.3,7.4-3.3c2.7,0,5.4,0,8.1,0c3.2,0,6.4,0,9.6,0c5.9,0.1,10.2,4.6,10.3,10.8
		c0,2.1,0,4.1,0,6.2v4.7h0c0,0.3,0,0.7,0,1c0,2.2,0,4.4,0,6.6c-0.1,5.4-4.3,9.8-9.5,9.9C111.4,100.4,108.3,100.4,105,100.4z
		 M98.4,88.1c0.1,0,0.2,0,0.6,0c2.1,0,4.1,0,6.1,0c2.1,0,4.1,0,6.2,0l0,0c0.4,0,0.6,0,0.7-0.1c0-0.1,0.1-0.3,0-0.6
		c-0.1-1.6-0.1-3.1,0-4.6c0-0.6,0-1.2,0-1.9v-2.1c0-1.6,0-3.3,0-4.9c0-0.1,0-0.2,0-0.2c-0.1,0-0.2,0-0.4-0.1
		c-0.8-0.1-1.6-0.1-2.6-0.1c-1.1,0-2.1,0.1-3.2,0.1c-1.1,0.1-2.3,0.1-3.4,0.1c-1.3,0-2.4-0.1-3.5-0.2c-0.1,0-0.2,0-0.3,0
		c-0.1,0-0.1,0-0.2,0c0,0.1-0.1,0.3-0.1,0.6c0.1,4.2,0.1,8.6,0,13.2C98.3,87.8,98.4,88,98.4,88.1C98.4,88.1,98.4,88.1,98.4,88.1z"/>
	<path class="st0" d="M132.8,87.2c-3.7,0-6.1-2.8-6.2-7c0-2.1,0,5.3,0,3.2v-2.7V78c0-1.9,0-3.8,0-5.7c0.1-6.6,4.3-11,10.6-11
		c3,0,5.9,0,8.9,0c2.7,0,5.5,0,8.2,0c6.1,0,10.4,4.4,10.6,10.5c0.1,4.9,0.1,0.2,0,4.9c0,3.7-2.7,6.8-5.9,6.9c-0.1,0-0.2,0-0.3,0
		c-4.9,0-6.2-1.6-5.9-6.2c0.3-3.7-0.3,2-0.2-2.7c0-0.7-0.1-0.9-0.1-1c0,0,0,0,0,0c0,0-0.2-0.1-0.7-0.1c-0.1,0-0.2,0-0.3,0
		c-2.8,0.1-5.4,0.2-7.9,0.2c-1.5,0-3,0-4.4-0.1h-0.2c-0.2,0-0.4,0-0.5,0c0,0.1-0.1,0.4-0.1,0.9c0,4.9,0,0.5,0,5.7
		c0,4.3-2.1,6.8-5.6,6.9H132.8z"/>
</g>
</svg>
