<?xml version="1.0" encoding="utf-8"?>
<!-- Generator: Adobe Illustrator 25.2.3, SVG Export Plug-In . SVG Version: 6.00 Build 0)  -->
<svg version="1.1" id="physical_computing" xmlns="http://www.w3.org/2000/svg" xmlns:xlink="http://www.w3.org/1999/xlink" x="0px"
	 y="0px" viewBox="0 0 256 256" style="enable-background:new 0 0 256 256;" xml:space="preserve">
<style type="text/css">
	.st0{fill:#FFFFFF;}
</style>
<g>
	<path class="st0" d="M238.8,128.6c-0.6,33.2-12.5,61.9-37.6,84.7c-19.1,17.3-41.9,26.9-68.2,28.1c-30.6,1.5-57.2-8.2-79.5-28.2
		C32.1,194,20,169.8,16.8,141.6C14,117.1,18.6,93.9,31,72.4c14.4-25.2,35.5-43,64-51.5c38.4-11.4,73.1-4,103.6,21.2
		c23.2,19.1,35.6,44.1,39.5,73.3C238.6,119.7,238.6,124.1,238.8,128.6z M81.3,61.5c-9.8,0-19.5,0-29.3,0c-1.6,0-3,0.1-4.1,1.5
		c-7.2,9.2-13,19.2-16.8,30.3c-0.8,2.2-0.2,3.3,2.2,3.3c6.3,0,12.5,0,18.8,0c1.8,0,3-0.8,3.9-2.4c1.1-2,2.4-4,4.3-5.4
		c5.9-4.5,13-4.5,19.1,0c5.6,4.2,7.7,12.2,4.7,18.8c-2.9,6.5-9.8,10.4-16.7,9.2c-5.1-0.9-8.8-3.8-11.2-8.2c-0.9-1.6-1.9-2.6-4-2.6
		c-7.3,0.1-14.6,0.1-21.9,0c-2.1,0-3.1,0.7-3.5,2.9c-1.4,7.7-2,15.5-1.8,23.3c0,2,0.9,2.6,2.8,2.6c4.5-0.1,9.1,0,13.6,0
		c8.7,0,15,4.9,17.1,13.2c1,4.1,0.5,8.2,0.6,12.3c0.1,6.2,3.2,9.3,9.5,9.4c12.2,0,24.5,0,36.7,0.1c2.1,0,3.3-0.6,4.2-2.6
		c2.7-5.3,7.2-8.5,13.4-8.8c7.5-0.4,14.3,5.1,15.8,12.6c1.5,7.4-2.8,15.1-9.9,17.8c-7.2,2.7-15.1-0.1-18.9-7.1
		c-1.4-2.6-3-3.3-5.8-3.2c-12.3,0.1-24.7,0.1-37.1,0c-8.6,0-15-5.5-16.5-13.8c-0.7-4-0.3-8-0.4-12c-0.2-5.7-3.5-8.9-9.3-9
		c-3.8-0.1-7.6,0.1-11.4-0.1c-2.9-0.1-3.6,1-3.1,3.6c3.5,18.4,10.9,35,23.2,49.5c1.7,2,3.4,2.8,6,2.8c16.2-0.1,32.3-0.1,48.5,0
		c10.7,0,17.8,6.9,17.9,17.4c0,4.5,0.1,9,0,13.5c0,1.9,0.8,2.7,2.7,2.7c3.7-0.1,7.4,0,11.1-0.3c2.7-0.2,3.4-1.3,3.4-3.8
		c-0.1-10.6-0.1-21.2,0-31.9c0.1-11.1,7.2-18,18.6-18c16.6,0,33.1,0,49.7,0c10.5,0,10.4,0,14.4-9.6c7.2-17.3,9.3-35.2,7.2-53.6
		c-0.5-4.6-0.5-4.6-5.2-4.6c-6.5,0-13,0-19.4,0c-2.8,0-5.3-0.7-7.6-2c-6.4-3.6-8.9-9.2-8.9-16.1c0-14.8-0.1-29.7,0-44.5
		c0-2.3-0.7-3.9-2.7-5.3c-12.1-8.4-25.5-13.7-40-16.6c-2.5-0.5-3.6,0.1-3.6,2.8c0.1,9.5,0,19,0.1,28.5c0,5,3.4,8.2,8.5,8.4
		c2.1,0.1,4.1,0,6.2,0c12.9,0,19.7,6.6,19.8,19.3c0,12.2,0.1,24.4,0,36.7c0,2.3,0.6,3.9,2.9,5.1c4.9,2.5,7.6,6.7,8.2,12
		c0.6,6.4-1.7,11.6-7.4,15.1c-5.5,3.4-11,3.4-16.5-0.2c-9.8-6.5-9.3-20.4,0.9-26.8c1.4-0.9,2.7-1.6,2.7-3.6
		c-0.1-13.7,0-27.5-0.1-41.2c0-4.5-3-7.1-7.7-7.2c-2.5-0.1-4.9,0-7.4,0c-11.5-0.1-18.9-7.3-19-18.5c0-9.6-0.1-19.2,0-28.9
		c0-2.4-0.8-3.2-3.2-3.1c-4.2,0.1-8.4,0.1-12.6,0.5c-21.7,2.3-40.5,10.8-56.7,24.9c-0.6,0.5-1.6,1-1.2,1.9c0.4,0.8,1.4,0.6,2.2,0.7
		c0.8,0,1.7,0,2.5,0c15.3,0,30.7,0.3,46-0.1c10.3-0.3,18.2,7.6,17.9,17.5c-0.3,13.8-0.1,27.7-0.1,41.5c0,1.9,0.4,3.1,2.4,4
		c3.2,1.4,5.4,3.9,7.1,6.9c3.4,6,2.3,12.8-2.7,18.4c-4,4.4-10.8,5.9-16.7,3.5c-6.4-2.6-9.6-7.6-9.9-14.1c-0.3-6.4,2.9-11.3,8.7-14.6
		c1.5-0.8,2.7-1.5,2.7-3.5c-0.1-14,0-28-0.1-42.1c-0.1-5.6-3.5-8.5-9.3-8.5C100.3,61.5,90.8,61.5,81.3,61.5z M211.2,188.3
		c-0.5-0.7-1.1-0.6-1.6-0.7c-17.8,0-35.6-0.1-53.4,0c-5.1,0-7.8,2.8-7.9,7.7c-0.1,10.4-0.1,20.8,0,31.3c0,3.6,0.3,3.7,4,2.8
		c20.1-5.1,36.9-15.5,50.7-30.6C206.1,195.6,208.8,192,211.2,188.3z M197.1,52.8c-0.2,0.9-0.3,1.2-0.3,1.4c0,13.2-0.1,26.4,0,39.6
		c0,4.7,3.2,7.7,8,7.8c6.1,0.1,12.1-0.1,18.2,0.1c3,0.1,3.1-1.1,2.4-3.5c-2.9-9.3-6.9-18.2-12.2-26.5
		C208.6,64.9,203.7,58.4,197.1,52.8z M62.3,208.1c0.6,0.9,0.7,1.3,1,1.6c2,1.6,4,3.2,6.1,4.6c12.1,8.6,25.7,13.9,40.2,16.9
		c2.5,0.5,3.7-0.1,3.6-2.8c-0.2-3.7,0-7.4,0-11.1c0-6.4-2.8-9.1-9.4-9.1c-8.6,0-17.3,0-25.9,0C72.8,208.1,67.8,208.1,62.3,208.1z
		 M116.9,129.7c0,3.8,2.7,6.6,6.3,6.7c3.7,0.1,6.6-2.9,6.6-6.8c0-3.7-2.8-6.6-6.4-6.7C119.8,122.8,116.9,125.8,116.9,129.7z
		 M129.8,173.9c0.1-4-2.3-6.6-6.2-6.7c-4.1-0.1-6.7,2.4-6.7,6.6c0,4,2.5,6.6,6.4,6.6C127.1,180.4,129.8,177.7,129.8,173.9z
		 M63.3,101c0,3.5,3,6.7,6.5,6.9c3.5,0.1,6.8-3.2,6.8-6.9c0-3.6-2.9-6.5-6.6-6.6C66.3,94.4,63.3,97.3,63.3,101z M165.2,141
		c0,3.6,2.9,6.7,6.4,6.7c3.5,0,6.6-3.1,6.7-6.6c0.1-3.5-3-6.8-6.4-6.8C168.2,134.2,165.2,137.1,165.2,141z"/>
</g>
</svg>
