<?xml version="1.0" encoding="utf-8"?>
<!-- Generator: Adobe Illustrator 25.2.3, SVG Export Plug-In . SVG Version: 6.00 Build 0)  -->
<svg version="1.1" id="Holograms" xmlns="http://www.w3.org/2000/svg" xmlns:xlink="http://www.w3.org/1999/xlink" x="0px" y="0px"
	 viewBox="0 0 256 256" style="enable-background:new 0 0 256 256;" xml:space="preserve">
<style type="text/css">
	.st0{fill:#FFFFFF;}
</style>
<g>
	<path class="st0" d="M101.6,227.4c-1.4,0-2.4-0.6-2.8-1.8c-0.8-2.1-0.8-4.5,0-6.7c0.6-1.6,2.2-1.6,3.1-1.6h0.1c1.8,0,3.5,0,5.3,0
		h82.9c0.2,0,1.1,0,1.3,0c0.3,0,0.5,0,0.8,0c0.1,0,0.2,0,0.2,0c0.2,0,0.3,0,0.5,0c-0.1-0.1-0.3-0.2-0.4-0.4l-1.9-2.1
		c-2.8-3.1-5.7-6.4-8.5-9.5c-2-2.1-3.9-4.3-5.9-6.4c-2.7-2.9-5.4-5.9-8.1-8.8c-1.3-1.4-2.6-2.1-4.3-2.1c-0.1,0-0.2,0-0.4,0
		c-1.4,0.1-2.8,0.1-4,0.1c-1.3,0-2.5,0-3.7-0.1c-0.2,0-0.4,0-0.5,0c-1.9,0-2.8,0.7-3.6,2.6c-1.2,3.1-2.8,6.2-4.3,9.1l-0.7,1.4
		c-1.3,2.6-3.2,3.1-4.6,3.1h-0.1c-2.1-0.1-3.3-1.4-4.2-2.8c-1.2-1.9-0.4-3.5,0.2-4.7c0.1-0.2,0.2-0.4,0.3-0.6
		c2.4-5.1,4.8-10.1,7.2-15.1c1.9-4.1,3.9-8.2,5.8-12.3c8.5-18.1,17-36.1,25.4-54.2l16.6-35.3c4.7-10,9.4-20.1,14.1-30.1l7.9-16.8
		c0.1-0.1,0.1-0.2,0.1-0.3c0.1-0.2,0.2-0.5,0.3-0.7c1.2-2.2,3-3.5,4.9-3.5c0.6,0,1.3,0.1,1.9,0.5c2.8,1.4,3.5,4,2,7.2
		c-5.5,11.8-11,23.5-16.2,34.6c-12,25.6-24.1,51.2-36.1,76.8c-3.1,6.6-6.2,13.1-9.3,19.7l-4,8.5l-0.3,0.7c-0.2,0.4-0.4,0.8-0.6,1.2
		c-0.3,0.7-0.4,1.1-0.5,1.3c0.2,0,0.6,0.1,1.4,0.1l2.8,0c3.4,0,6.8,0,10.1,0c4.3,0,7.9,0,11.3-0.1h0.1c2.5,0,4.4,0.8,6,2.6
		c6.1,6.7,12.2,13.4,18.4,20.1c5.2,5.7,10.5,11.5,15.7,17.2c1.7,1.9,3.3,4.4,0.8,7.2c-1.5,1.8-3.6,1.8-5,1.8h-80.3
		c-11.9,0-23.9,0-35.8,0c-0.2,0-0.5,0-0.7,0C102.3,227.4,101.9,227.4,101.6,227.4z M208.7,217.2c0.2,0,0.4,0,0.6,0.1
		c0.1,0,0.3,0,0.4,0c0-0.1-0.3-0.3-0.5-0.5c-0.1-0.1-0.3-0.3-0.4-0.4c-2.4-2.6-4.9-5.3-7.3-8c-5.6-6.1-11.3-12.4-16.9-18.6
		c-1.1-1.2-2.2-1.8-3.7-1.8c-0.2,0-0.4,0-0.6,0c-0.1,0-0.3,0-0.4,0c0,0-0.1,0-0.1,0c0,0,0.1,0.1,0.1,0.1c0.1,0.1,0.2,0.2,0.3,0.3
		c3.9,4.2,7.7,8.4,11.6,12.6c4.6,5,9.2,10.1,13.9,15.1c0.8,0.8,1.5,1.2,2.5,1.2l0,0c0.1,0,0.3,0,0.5,0
		C208.5,217.2,208.6,217.2,208.7,217.2z"/>
	<path class="st0" d="M32.4,227.3c-1.8,0-4.4-0.3-5.7-3c-1.3-2.8,0.5-4.8,1.8-6.1l8.1-8.9c8.7-9.5,17.4-18.9,26-28.4
		c1.6-1.7,3.4-2.5,5.8-2.5h0.1c3.7,0,7.4,0.1,11.1,0.1c2.9,0,5.8,0,8.7,0l4.2,0c0.4,0,1.3,0,1.7-0.1c-0.1-0.4-0.5-1.2-0.6-1.5
		c-5.5-11.9-11.2-24-16.7-35.6l-44-93.5c-1.9-4-3.8-8.1-5.7-12.2c-2-4.5,0.4-6.5,2-7.2c0.6-0.3,1.3-0.5,1.9-0.5c2,0,3.9,1.4,5,3.7
		c2.3,4.8,4.7,9.8,6.9,14.6l0.3,0.7c2.6,5.5,5.1,10.9,7.7,16.4c4.5,9.6,9,19.2,13.5,28.9c9.9,21,19.8,41.9,29.6,62.9l10.6,22.4
		c0.8,1.8,1.7,3.6,2.6,5.4c2,4.3,4.1,8.7,6.1,13.1c0.1,0.2,0.2,0.5,0.3,0.7c0.6,1.1,1.4,2.7,0.4,4.5c-0.7,1.3-2,3-4.4,3.1h-0.1
		c-2,0-3.6-1-4.6-3.1c-1.8-3.6-3.8-7.3-5.4-11.2c-0.7-1.6-1.5-1.9-2.5-1.9c-0.1,0-0.2,0-0.4,0c-0.4,0-0.8,0.1-1.3,0.1
		c-0.4,0-0.8,0-1.1-0.1c-1-0.2-1.9-0.2-2.8-0.2c-4.5,0-8.2,2-11.7,6.4c-4.4,5.4-9.3,10.6-14,15.7c-2.1,2.3-4.3,4.6-6.4,6.9
		c-0.1,0.1-0.3,0.3-0.5,0.4c0,0-0.1,0.1-0.1,0.1c0.1,0,0.2,0,0.2,0c0.2,0,0.4,0,0.6,0c2.3,0,4.5,0,6.8,0h3.4c2.5,0,4.9,0,7.4,0
		c1.5,0,3,0.2,3.9,1.2c0.8,0.9,1,2.3,1,4.1c0,3.7-1.1,4.8-4.8,4.8c-3.2,0-6.4,0-9.6,0l-25.2,0c-3.3,0-6.6,0-9.9,0H32.4z M43.2,217.2
		c0.1,0,0.2,0,0.3,0c0.2,0,0.4,0.1,0.6,0.1c1,0,1.9-0.5,3-1.7c3.4-3.7,6.7-7.4,10.1-11c4.5-5,9.1-9.9,13.6-14.9
		c0.2-0.3,0.6-0.5,0.8-0.8c0.3-0.2,0.8-0.6,0.8-0.8c-0.1,0-0.1-0.2-0.6-0.2c-0.3,0-0.7,0.1-1.1,0.1c-0.4,0.1-0.8,0.1-1.2,0.1
		c-0.6,0-1.1,0.5-1.7,1.2l-9.6,10.5c-5.1,5.5-10.1,11.1-15.2,16.6c-0.1,0.1-0.3,0.3-0.4,0.4c-0.1,0.1-0.3,0.3-0.4,0.4h0
		c0.1,0,0.2,0,0.3,0C42.9,217.2,43,217.2,43.2,217.2z"/>
	<path class="st0" d="M96.5,113.2c-3.8,0-5.1-1.4-5.1-5.5l0-3.4c0-6.7,0-13.7,0-20.5c0.1-5.7,2.1-9.7,6.3-12c1.9-1.1,4-1.2,5.9-1.3
		c0.5,0,1-0.1,1.5-0.1c0.3,0,0.7,0,1,0c0.2,0,1.2,0,1.4,0c0.2,0,0.4,0,0.6,0h0.2c0.2,0,0.4,0,0.6,0c0.2,0,0.3,0,0.4,0
		c0,0,0.1,0,0.1,0c-0.1-0.1-0.2-0.2-0.3-0.3c-0.2-0.2-0.4-0.3-0.5-0.5c-5-5.5-7.4-11.6-7.1-18.8c0.3-9.1,8-19.1,16.8-21.9
		c2.5-0.8,5-1.2,7.5-1.2c9.7,0,18.9,6.1,22.8,15.1c3.8,8.8,1.7,19.3-5.2,26.7c-0.2,0.2-0.4,0.3-0.6,0.5c-0.1,0.1-0.2,0.2-0.3,0.3
		c0,0,0.1,0,0.1,0c0.1,0,0.3,0,0.4,0c0.2,0,0.4,0,0.5,0h0.2c0.9,0,1.8,0.1,2.7,0.1c0.9,0,1.8,0,2.7,0.1c6.8,0.3,10.9,4.5,11.4,11.7
		c0.3,3.6,0.2,7.2,0.1,10.7c0,1.1,0,2.1-0.1,3.2c0,3.7-2.9,3.8-4.7,3.8c-0.2,0-0.5,0-0.8,0c-0.2,0-0.3,0-0.5,0c-0.9,0-2.2-0.1-3.1-1
		c-0.7-0.7-1-1.6-1-2.9c0-3.9,0-8.1,0-12.3c0-2.9-0.7-3.5-3.5-3.6c-3,0-5.9,0-8.9,0l-12.1,0l-12.4,0c-2.8,0-5.5,0-8.3,0
		c-3.4,0-3.9,0.6-3.9,4c0,4.2,0,8.4,0,12.6c0,3.7,0,7.4,0,11.1c0,4.1-0.7,5.6-4.7,5.6L96.5,113.2z M142.3,70.3
		C142.3,70.3,142.3,70.3,142.3,70.3C142.3,70.3,142.3,70.3,142.3,70.3z M126,37.7c-4,0-8.3,2-11.2,5.2c-2.4,2.7-3.6,6-3.2,9.1l0,0.1
		l0,0.1c-0.3,3.6,0.9,7.2,3.4,9.9c2.7,3,6.7,4.7,10.9,4.8h0.2c8.7,0,14.2-7.5,14.5-14.4c0.1-4.7-2.1-8.1-4-10.1
		c-2.8-2.9-6.8-4.8-10.4-4.8L126,37.7z"/>
	<path class="st0" d="M89.9,227.3c-1.9,0-3.2-0.1-4.1-0.9c-0.8-0.9-0.9-2.1-0.9-4.1c0-4.1,1-5.1,5-5.1l0,0c2,0,3.2,0.2,4.1,1
		c0.9,0.9,1,2.2,1,4.3c0,4.1-0.8,4.8-5,4.8L89.9,227.3L89.9,227.3z"/>
	<path class="st0" d="M109.8,119.6c-1.9,0-3.2-0.2-4-1c-0.9-0.9-1-2.2-1-4.3c0-4,0.8-4.8,4.8-4.8h0.3c4,0,4.9,1,4.9,4.8
		C114.8,118.3,113.6,119.6,109.8,119.6L109.8,119.6z"/>
	<path class="st0" d="M142.1,119.6c-3.7,0-4.9-1.3-5-5.1c0-1.9,0.1-3.2,1-4c0.8-0.8,2.1-1,4.1-1h0.1c4.2,0,4.9,0.7,4.9,4.9
		c0,4.1-0.9,5.1-4.9,5.2L142.1,119.6z"/>
	<path class="st0" d="M112.8,178.3c-1.9,0-3-0.1-3.8-0.9c-0.8-0.8-1-2-1-4.1c0-3.9,0.6-4.9,4.7-4.9h0.3c1.8,0,3.1,0.2,4,1.1
		c0.9,0.9,1.1,2.3,1.1,4.3c0,3.6-1.2,4.6-5.2,4.7L112.8,178.3L112.8,178.3z"/>
	<path class="st0" d="M139,178.3c-3.9,0-5.1-1.1-5.1-4.7c0-1.9,0.2-3.3,1.1-4.2c0.9-0.9,2.3-1.1,4.1-1.1h0.2c4,0,4.8,0.8,4.8,5
		c0,2-0.1,3.2-0.9,4c-0.9,0.9-2.3,1-3.8,1H139z"/>
	<path class="st0" d="M112.9,145.5c-4.2,0-4.9-0.7-4.9-4.9c0-4.1,0.9-5.1,4.9-5.2h0.2c1.4,0,2.9,0.1,3.8,1.1c1,1,1.1,2.5,1.1,3.9
		C118,144.5,117,145.5,112.9,145.5L112.9,145.5L112.9,145.5z"/>
	<path class="st0" d="M139,145.5c-4,0-5.1-1-5.1-5c0-1.5,0.1-3,1.1-4c1-1,2.4-1.1,3.9-1.1h0.2c4,0,4.9,1,4.9,5.1
		C144,144.8,143.2,145.5,139,145.5L139,145.5z"/>
	<path class="st0" d="M155.2,113.2c-4,0-4.7-1.7-4.7-5.5c0-3.8,0.8-4.6,4.6-4.6h0.4c3.9,0,5,1.1,5,4.8c0,2-0.4,3.2-1.2,4.1
		c-0.8,0.8-2,1.2-4,1.2L155.2,113.2z"/>
	<path class="st0" d="M138.9,106.2c-3.9,0-4.9-1-4.9-4.8c0-3.8,1-4.8,5-4.8h0.2c1.8,0,3.1,0.1,3.9,0.9c0.9,0.9,0.9,2.2,0.9,4.2
		c0,3.7-0.9,4.5-4.7,4.5L138.9,106.2z"/>
	<path class="st0" d="M96.5,125.7c-3.9,0-5-0.6-5.1-4.5c0-1.9,0.2-3.2,1-4.1c0.9-0.9,2.2-1.1,4.1-1.1c3.9,0,4.8,0.9,4.8,4.9
		c0,1.8-0.1,3-0.9,3.8C99.7,125.6,98.4,125.7,96.5,125.7C96.5,125.7,96.5,125.7,96.5,125.7z"/>
	<path class="st0" d="M119.4,165.4c-3.9,0-5-1.1-5-5.2c0-1.9,0.2-3.1,0.9-3.9c0.8-0.8,2-1,3.9-1h0.2c4,0,4.6,1,4.6,5.1
		c0,3.8-0.6,5-4.6,5L119.4,165.4L119.4,165.4z"/>
	<path class="st0" d="M132.4,165.4c-4,0-4.6-1.1-4.6-5c0-4,0.5-5,4.6-5.1h0.2c1.9,0,3.1,0.1,3.9,1c0.8,0.8,1,2,1,3.9
		C137.5,164.3,136.5,165.4,132.4,165.4L132.4,165.4L132.4,165.4z"/>
	<path class="st0" d="M155.4,125.7c-1.9,0-3.2-0.1-4-0.9c-0.8-0.8-0.9-2.1-0.9-3.8c0-4,0.9-4.9,4.8-4.9c2,0,3.3,0.2,4.2,1.1
		c0.9,0.9,1,2.2,1,4.1C160.6,125.1,159.4,125.7,155.4,125.7C155.5,125.7,155.4,125.7,155.4,125.7z"/>
	<path class="st0" d="M109.4,106.2c-3.9,0-4.7-0.8-4.7-4.9c0-3.9,0.8-4.6,4.7-4.6h0.2c2,0,3.3,0.2,4.1,1.1c0.8,0.8,1,2.1,1,3.9
		c0,3.6-1.1,4.6-5.1,4.6L109.4,106.2z"/>
	<path class="st0" d="M106.2,158.5c-3.9,0-4.7-0.8-4.7-5c0-3.8,0.8-4.6,4.6-4.6h0.2c2,0,3.4,0.2,4.3,1.1c0.9,0.9,1,2.1,1,3.8
		c0,3.7-1.1,4.7-5.2,4.7H106.2z"/>
	<path class="st0" d="M145.5,158.5c-4,0-5.1-1-5.1-4.8c0-1.4,0.1-2.8,1-3.7c0.9-0.9,2.4-1.1,4.2-1.1h0.4c3.9,0.1,4.5,1.1,4.4,4.9
		c0,3.9-0.8,4.7-4.7,4.7L145.5,158.5z"/>
	<path class="st0" d="M125.9,113.2c-4,0-4.6-1.2-4.6-5.1c0-4.3,0.6-5,4.6-5h0.2c4.1,0,4.5,0.9,4.5,4.8c0,2-0.1,3.4-1,4.3
		c-0.8,0.8-2.1,0.9-3.6,0.9L125.9,113.2z"/>
	<path class="st0" d="M125.9,152c-4,0-4.6-0.7-4.6-5c0-3.9,0.6-5.1,4.6-5.1h0.2c1.5,0,2.7,0.1,3.6,0.9c0.9,0.9,1,2.4,1,4.3
		c0,3.9-0.4,4.8-4.5,4.8L125.9,152L125.9,152z"/>
	<path class="st0" d="M138.9,132.2c-4.1,0-5-0.8-4.9-4.7c0-3.8,0.9-4.6,5-4.6h0.3c1.9,0,3.1,0.1,3.9,0.9s0.8,2,0.8,4
		c0,3.7-0.8,4.4-4.7,4.4L138.9,132.2z"/>
	<path class="st0" d="M112.9,132.2c-4.2,0-4.9-0.6-4.9-4.6c0-1.9,0.1-3.1,0.9-3.8c0.8-0.8,2.1-0.8,4-0.8s3.4,0.1,4.3,0.9
		c0.8,0.8,0.9,2.2,0.9,3.8C118,131.6,116.9,132.2,112.9,132.2L112.9,132.2z"/>
	<path class="st0" d="M152,139.1c-3.8,0-4.7-1-4.7-5.1c0-3.8,0.8-4.6,4.8-4.6h0.2c1.8,0,3,0.1,3.8,0.9c0.8,0.8,0.9,2.1,0.8,4.1
		c0,3.9-0.9,4.7-4.6,4.7H152z"/>
	<path class="st0" d="M99.6,139.1c-4,0-4.6-1.1-4.6-5.1c0-3.7,0.5-4.6,4.4-4.6h0.5c3.9,0,4.6,0.8,4.6,4.7c0,4-0.9,5-4.7,5H99.6z"/>
	<path class="st0" d="M125.9,178.3c-4,0-4.6-1-4.5-5.1c0-3.8,0.6-4.9,4.5-4.9h0.2c4,0,4.5,1.1,4.5,5.1c0,3.8-0.6,4.9-4.5,4.9H125.9z
		"/>
	<path class="st0" d="M126,191.3c-1.8,0-3-0.1-3.8-0.8c-0.8-0.8-0.9-2.1-0.9-4.1c0-4.1,0.6-4.7,4.5-4.7h0.3c4,0,4.4,1,4.4,4.8
		c0,2-0.1,3.3-0.9,4.1C129,191.2,127.8,191.3,126,191.3L126,191.3L126,191.3z"/>
	<path class="st0" d="M126,125.7c-1.8,0-3-0.1-3.8-0.8c-0.8-0.8-0.8-2.1-0.8-4.1c0-3.9,0.8-4.8,4.6-4.8c1.6,0,2.9,0.1,3.7,0.9
		c0.9,0.9,0.9,2.3,0.9,4.1C130.6,125.1,130,125.7,126,125.7L126,125.7L126,125.7z"/>
	<path class="st0" d="M125.9,139.1c-1.6,0-2.8-0.1-3.7-0.9c-0.9-0.9-0.9-2.3-0.9-4.2c0-3.9,0.7-4.6,4.5-4.6h0.2c1.8,0,3,0.1,3.7,0.8
		c0.8,0.8,0.8,2.1,0.8,4.1c0,3.8-0.9,4.7-4.6,4.7L125.9,139.1L125.9,139.1z"/>
	<path class="st0" d="M119.3,53.6c-3.9,0-4.9-0.5-4.9-4.5c0-1.8,0.1-3.1,0.9-3.9c0.8-0.8,2.2-0.9,4-0.9h0.2c1.8,0,3,0.1,3.8,0.8
		c0.8,0.8,0.8,2,0.8,3.9C124.1,53,123.5,53.6,119.3,53.6L119.3,53.6L119.3,53.6z"/>
	<path class="st0" d="M132.5,53.6c-4,0-4.7-0.7-4.7-4.6c0-1.9,0.1-3,0.8-3.8s2-0.8,3.6-0.8h0.4c1.7,0,3.1,0.1,3.9,0.9
		c0.9,0.9,0.9,2.2,0.9,4c0,3.7-0.8,4.3-4.8,4.3H132.5z"/>
</g>
</svg>
