{
	"asset":{
		"generator":"Khronos glTF Blender I/O v3.5.30",
		"version":"2.0"
	},
	"scene":0,
	"scenes":[
		{
			"name":"Scene",
			"nodes":[
				0,
				1,
				2,
				3,
				4,
				5,
				6,
				7,
				8,
				9,
				10,
				11,
				12,
				13,
				14
			]
		}
	],
	"nodes":[
		{
			"mesh":0,
			"name":"_Default",
			"scale":[
				0.02539999969303608,
				0.02539999969303608,
				0.02539999969303608
			]
		},
		{
			"mesh":1,
			"name":"Sphere",
			"scale":[
				0.02539999969303608,
				0.02539999969303608,
				0.02539999969303608
			]
		},
		{
			"mesh":2,
			"name":"Ico",
			"scale":[
				0.02539999969303608,
				0.02539999969303608,
				0.02539999969303608
			]
		},
		{
			"mesh":3,
			"name":"TeeShirt",
			"scale":[
				0.02539999969303608,
				0.02539999969303608,
				0.02539999969303608
			]
		},
		{
			"mesh":4,
			"name":"Claw",
			"scale":[
				0.02500000037252903,
				0.02500000037252903,
				0.02500000037252903
			]
		},
		{
			"mesh":5,
			"name":"Bell",
			"scale":[
				0.02539999969303608,
				0.02539999969303608,
				0.02539999969303608
			]
		},
		{
			"mesh":6,
			"name":"Hand",
			"scale":[
				0.02539999969303608,
				0.02539999969303608,
				0.02539999969303608
			]
		},
		{
			"mesh":7,
			"name":"Cat",
			"scale":[
				0.02539999969303608,
				0.02539999969303608,
				0.02539999969303608
			]
		},
		{
			"mesh":8,
			"name":"Robot",
			"scale":[
				0.02539999969303608,
				0.02539999969303608,
				0.02539999969303608
			],
			"translation":[
				0,
				-0.13623203337192535,
				0
			]
		},
		{
			"mesh":9,
			"name":"Rainbow",
			"scale":[
				0.02539999969303608,
				0.02539999969303608,
				0.02539999969303608
			]
		},
		{
			"mesh":10,
			"name":"Football",
			"scale":[
				0.02539999969303608,
				0.02539999969303608,
				0.02539999969303608
			]
		},
		{
			"mesh":11,
			"name":"Furby",
			"scale":[
				0.02539999969303608,
				0.02539999969303608,
				0.02539999969303608
			]
		},
		{
			"mesh":12,
			"name":"Head",
			"scale":[
				0.02539999969303608,
				0.02539999969303608,
				0.02539999969303608
			]
		},
		{
			"mesh":13,
			"name":"Laptop",
			"scale":[
				0.02539999969303608,
				0.02539999969303608,
				0.02539999969303608
			]
		},
		{
			"mesh":14,
			"name":"Periscope",
			"scale":[
				0.02539999969303608,
				0.02539999969303608,
				0.02539999969303608
			]
		}
	],
	"meshes":[
		{
			"name":"Mesh.002",
			"primitives":[
				{
					"attributes":{
						"POSITION":0,
						"NORMAL":1
					},
					"indices":2
				}
			]
		},
		{
			"name":"Mesh.010",
			"primitives":[
				{
					"attributes":{
						"POSITION":3,
						"NORMAL":4
					},
					"indices":2
				}
			]
		},
		{
			"name":"Mesh.020",
			"primitives":[
				{
					"attributes":{
						"POSITION":5,
						"NORMAL":6
					},
					"indices":7
				}
			]
		},
		{
			"name":"Mesh.024",
			"primitives":[
				{
					"attributes":{
						"POSITION":8,
						"NORMAL":9
					},
					"indices":10
				}
			]
		},
		{
			"name":"Mesh.026",
			"primitives":[
				{
					"attributes":{
						"POSITION":11,
						"NORMAL":12
					},
					"indices":13
				}
			]
		},
		{
			"name":"Mesh.030",
			"primitives":[
				{
					"attributes":{
						"POSITION":14,
						"NORMAL":15
					},
					"indices":16
				}
			]
		},
		{
			"name":"Mesh.031",
			"primitives":[
				{
					"attributes":{
						"POSITION":17,
						"NORMAL":18
					},
					"indices":19
				}
			]
		},
		{
			"name":"Mesh.032",
			"primitives":[
				{
					"attributes":{
						"POSITION":20,
						"NORMAL":21
					},
					"indices":22
				}
			]
		},
		{
			"name":"Mesh.034",
			"primitives":[
				{
					"attributes":{
						"POSITION":23,
						"NORMAL":24
					},
					"indices":25
				}
			]
		},
		{
			"name":"Mesh.006",
			"primitives":[
				{
					"attributes":{
						"POSITION":26,
						"NORMAL":27
					},
					"indices":28
				}
			]
		},
		{
			"name":"Mesh.012",
			"primitives":[
				{
					"attributes":{
						"POSITION":29,
						"NORMAL":30
					},
					"indices":31
				}
			]
		},
		{
			"name":"Mesh.013",
			"primitives":[
				{
					"attributes":{
						"POSITION":32,
						"NORMAL":33
					},
					"indices":34
				}
			]
		},
		{
			"name":"Mesh.018",
			"primitives":[
				{
					"attributes":{
						"POSITION":35,
						"NORMAL":36
					},
					"indices":37
				}
			]
		},
		{
			"name":"Mesh.023",
			"primitives":[
				{
					"attributes":{
						"POSITION":38,
						"NORMAL":39
					},
					"indices":40
				}
			]
		},
		{
			"name":"Mesh.025",
			"primitives":[
				{
					"attributes":{
						"POSITION":41,
						"NORMAL":42
					},
					"indices":43
				}
			]
		}
	],
	"accessors":[
		{
			"bufferView":0,
			"componentType":5126,
			"count":2940,
			"max":[
				39.268836975097656,
				39.370079040527344,
				39.24703598022461
			],
			"min":[
				-39.268836975097656,
				-39.370079040527344,
				-39.247032165527344
			],
			"type":"VEC3"
		},
		{
			"bufferView":1,
			"componentType":5126,
			"count":2940,
			"type":"VEC3"
		},
		{
			"bufferView":2,
			"componentType":5123,
			"count":2940,
			"type":"SCALAR"
		},
		{
			"bufferView":3,
			"componentType":5126,
			"count":2940,
			"max":[
				39.268836975097656,
				39.370079040527344,
				39.24703598022461
			],
			"min":[
				-39.268836975097656,
				-39.370079040527344,
				-39.247032165527344
			],
			"type":"VEC3"
		},
		{
			"bufferView":4,
			"componentType":5126,
			"count":2940,
			"type":"VEC3"
		},
		{
			"bufferView":5,
			"componentType":5126,
			"count":763,
			"max":[
				35.21357727050781,
				39.37008285522461,
				33.489768981933594
			],
			"min":[
				-35.21357727050781,
				-39.37008285522461,
				-33.489768981933594
			],
			"type":"VEC3"
		},
		{
			"bufferView":6,
			"componentType":5126,
			"count":763,
			"type":"VEC3"
		},
		{
			"bufferView":7,
			"componentType":5123,
			"count":2940,
			"type":"SCALAR"
		},
		{
			"bufferView":8,
			"componentType":5126,
			"count":2931,
			"max":[
				36.61980438232422,
				40.536834716796875,
				16.31053924560547
			],
			"min":[
				-35.6328239440918,
				-36.2850341796875,
				-17.357933044433594
			],
			"type":"VEC3"
		},
		{
			"bufferView":9,
			"componentType":5126,
			"count":2931,
			"type":"VEC3"
		},
		{
			"bufferView":10,
			"componentType":5123,
			"count":2940,
			"type":"SCALAR"
		},
		{
			"bufferView":11,
			"componentType":5126,
			"count":2940,
			"max":[
				31.730472564697266,
				45.859493255615234,
				30.0084285736084
			],
			"min":[
				-21.09000015258789,
				-41.66461944580078,
				-36.999210357666016
			],
			"type":"VEC3"
		},
		{
			"bufferView":12,
			"componentType":5126,
			"count":2940,
			"type":"VEC3"
		},
		{
			"bufferView":13,
			"componentType":5123,
			"count":2940,
			"type":"SCALAR"
		},
		{
			"bufferView":14,
			"componentType":5126,
			"count":2940,
			"max":[
				47.84482955932617,
				44.53574752807617,
				40.49397659301758
			],
			"min":[
				-30.345205307006836,
				-33.117191314697266,
				-40.018924713134766
			],
			"type":"VEC3"
		},
		{
			"bufferView":15,
			"componentType":5126,
			"count":2940,
			"type":"VEC3"
		},
		{
			"bufferView":16,
			"componentType":5123,
			"count":2940,
			"type":"SCALAR"
		},
		{
			"bufferView":17,
			"componentType":5126,
			"count":2940,
			"max":[
				55.97780227661133,
				30.438827514648438,
				38.822444915771484
			],
			"min":[
				-65.07506561279297,
				-22.205610275268555,
				-38.73125457763672
			],
			"type":"VEC3"
		},
		{
			"bufferView":18,
			"componentType":5126,
			"count":2940,
			"type":"VEC3"
		},
		{
			"bufferView":19,
			"componentType":5123,
			"count":2940,
			"type":"SCALAR"
		},
		{
			"bufferView":20,
			"componentType":5126,
			"count":2940,
			"max":[
				47.41321563720703,
				45.13960266113281,
				44.78446578979492
			],
			"min":[
				-36.50716781616211,
				-46.2213249206543,
				-44.702579498291016
			],
			"type":"VEC3"
		},
		{
			"bufferView":21,
			"componentType":5126,
			"count":2940,
			"type":"VEC3"
		},
		{
			"bufferView":22,
			"componentType":5123,
			"count":2940,
			"type":"SCALAR"
		},
		{
			"bufferView":23,
			"componentType":5126,
			"count":2940,
			"max":[
				58.086429595947266,
				62.25368881225586,
				45.238746643066406
			],
			"min":[
				-61.150047302246094,
				-53.41722106933594,
				-47.23267364501953
			],
			"type":"VEC3"
		},
		{
			"bufferView":24,
			"componentType":5126,
			"count":2940,
			"type":"VEC3"
		},
		{
			"bufferView":25,
			"componentType":5123,
			"count":2940,
			"type":"SCALAR"
		},
		{
			"bufferView":26,
			"componentType":5126,
			"count":2314,
			"max":[
				60.0556526184082,
				39.257904052734375,
				19.108436584472656
			],
			"min":[
				-60.51226043701172,
				-22.06015396118164,
				-18.33698844909668
			],
			"type":"VEC3"
		},
		{
			"bufferView":27,
			"componentType":5126,
			"count":2314,
			"type":"VEC3"
		},
		{
			"bufferView":28,
			"componentType":5123,
			"count":2940,
			"type":"SCALAR"
		},
		{
			"bufferView":29,
			"componentType":5126,
			"count":2940,
			"max":[
				29.481557846069336,
				55.79585266113281,
				33.881263732910156
			],
			"min":[
				-28.852550506591797,
				-76.90736389160156,
				-35.85265350341797
			],
			"type":"VEC3"
		},
		{
			"bufferView":30,
			"componentType":5126,
			"count":2940,
			"type":"VEC3"
		},
		{
			"bufferView":31,
			"componentType":5123,
			"count":2940,
			"type":"SCALAR"
		},
		{
			"bufferView":32,
			"componentType":5126,
			"count":2940,
			"max":[
				46.137325286865234,
				41.450260162353516,
				38.723876953125
			],
			"min":[
				-43.8765983581543,
				-38.0276985168457,
				-42.91548538208008
			],
			"type":"VEC3"
		},
		{
			"bufferView":33,
			"componentType":5126,
			"count":2940,
			"type":"VEC3"
		},
		{
			"bufferView":34,
			"componentType":5123,
			"count":2940,
			"type":"SCALAR"
		},
		{
			"bufferView":35,
			"componentType":5126,
			"count":2934,
			"max":[
				37.166194915771484,
				49.121524810791016,
				36.45319747924805
			],
			"min":[
				-46.47993469238281,
				-57.30941390991211,
				-36.860496520996094
			],
			"type":"VEC3"
		},
		{
			"bufferView":36,
			"componentType":5126,
			"count":2934,
			"type":"VEC3"
		},
		{
			"bufferView":37,
			"componentType":5123,
			"count":2940,
			"type":"SCALAR"
		},
		{
			"bufferView":38,
			"componentType":5126,
			"count":2236,
			"max":[
				27.764694213867188,
				33.96843338012695,
				43.19786071777344
			],
			"min":[
				-39.73154830932617,
				-24.030168533325195,
				-43.525028228759766
			],
			"type":"VEC3"
		},
		{
			"bufferView":39,
			"componentType":5126,
			"count":2236,
			"type":"VEC3"
		},
		{
			"bufferView":40,
			"componentType":5123,
			"count":2940,
			"type":"SCALAR"
		},
		{
			"bufferView":41,
			"componentType":5126,
			"count":2928,
			"max":[
				33.391727447509766,
				61.35466003417969,
				28.07703971862793
			],
			"min":[
				-35.62060546875,
				-40.071571350097656,
				-28.07790184020996
			],
			"type":"VEC3"
		},
		{
			"bufferView":42,
			"componentType":5126,
			"count":2928,
			"type":"VEC3"
		},
		{
			"bufferView":43,
			"componentType":5123,
			"count":2940,
			"type":"SCALAR"
		}
	],
	"bufferViews":[
		{
			"buffer":0,
			"byteLength":35280,
			"byteOffset":0,
			"target":34962
		},
		{
			"buffer":0,
			"byteLength":35280,
			"byteOffset":35280,
			"target":34962
		},
		{
			"buffer":0,
			"byteLength":5880,
			"byteOffset":70560,
			"target":34963
		},
		{
			"buffer":0,
			"byteLength":35280,
			"byteOffset":76440,
			"target":34962
		},
		{
			"buffer":0,
			"byteLength":35280,
			"byteOffset":111720,
			"target":34962
		},
		{
			"buffer":0,
			"byteLength":9156,
			"byteOffset":147000,
			"target":34962
		},
		{
			"buffer":0,
			"byteLength":9156,
			"byteOffset":156156,
			"target":34962
		},
		{
			"buffer":0,
			"byteLength":5880,
			"byteOffset":165312,
			"target":34963
		},
		{
			"buffer":0,
			"byteLength":35172,
			"byteOffset":171192,
			"target":34962
		},
		{
			"buffer":0,
			"byteLength":35172,
			"byteOffset":206364,
			"target":34962
		},
		{
			"buffer":0,
			"byteLength":5880,
			"byteOffset":241536,
			"target":34963
		},
		{
			"buffer":0,
			"byteLength":35280,
			"byteOffset":247416,
			"target":34962
		},
		{
			"buffer":0,
			"byteLength":35280,
			"byteOffset":282696,
			"target":34962
		},
		{
			"buffer":0,
			"byteLength":5880,
			"byteOffset":317976,
			"target":34963
		},
		{
			"buffer":0,
			"byteLength":35280,
			"byteOffset":323856,
			"target":34962
		},
		{
			"buffer":0,
			"byteLength":35280,
			"byteOffset":359136,
			"target":34962
		},
		{
			"buffer":0,
			"byteLength":5880,
			"byteOffset":394416,
			"target":34963
		},
		{
			"buffer":0,
			"byteLength":35280,
			"byteOffset":400296,
			"target":34962
		},
		{
			"buffer":0,
			"byteLength":35280,
			"byteOffset":435576,
			"target":34962
		},
		{
			"buffer":0,
			"byteLength":5880,
			"byteOffset":470856,
			"target":34963
		},
		{
			"buffer":0,
			"byteLength":35280,
			"byteOffset":476736,
			"target":34962
		},
		{
			"buffer":0,
			"byteLength":35280,
			"byteOffset":512016,
			"target":34962
		},
		{
			"buffer":0,
			"byteLength":5880,
			"byteOffset":547296,
			"target":34963
		},
		{
			"buffer":0,
			"byteLength":35280,
			"byteOffset":553176,
			"target":34962
		},
		{
			"buffer":0,
			"byteLength":35280,
			"byteOffset":588456,
			"target":34962
		},
		{
			"buffer":0,
			"byteLength":5880,
			"byteOffset":623736,
			"target":34963
		},
		{
			"buffer":0,
			"byteLength":27768,
			"byteOffset":629616,
			"target":34962
		},
		{
			"buffer":0,
			"byteLength":27768,
			"byteOffset":657384,
			"target":34962
		},
		{
			"buffer":0,
			"byteLength":5880,
			"byteOffset":685152,
			"target":34963
		},
		{
			"buffer":0,
			"byteLength":35280,
			"byteOffset":691032,
			"target":34962
		},
		{
			"buffer":0,
			"byteLength":35280,
			"byteOffset":726312,
			"target":34962
		},
		{
			"buffer":0,
			"byteLength":5880,
			"byteOffset":761592,
			"target":34963
		},
		{
			"buffer":0,
			"byteLength":35280,
			"byteOffset":767472,
			"target":34962
		},
		{
			"buffer":0,
			"byteLength":35280,
			"byteOffset":802752,
			"target":34962
		},
		{
			"buffer":0,
			"byteLength":5880,
			"byteOffset":838032,
			"target":34963
		},
		{
			"buffer":0,
			"byteLength":35208,
			"byteOffset":843912,
			"target":34962
		},
		{
			"buffer":0,
			"byteLength":35208,
			"byteOffset":879120,
			"target":34962
		},
		{
			"buffer":0,
			"byteLength":5880,
			"byteOffset":914328,
			"target":34963
		},
		{
			"buffer":0,
			"byteLength":26832,
			"byteOffset":920208,
			"target":34962
		},
		{
			"buffer":0,
			"byteLength":26832,
			"byteOffset":947040,
			"target":34962
		},
		{
			"buffer":0,
			"byteLength":5880,
			"byteOffset":973872,
			"target":34963
		},
		{
			"buffer":0,
			"byteLength":35136,
			"byteOffset":979752,
			"target":34962
		},
		{
			"buffer":0,
			"byteLength":35136,
			"byteOffset":1014888,
			"target":34962
		},
		{
			"buffer":0,
			"byteLength":5880,
			"byteOffset":1050024,
			"target":34963
		}
	],
	"buffers":[
		{
			"byteLength":1055904,
			"uri":"data:application/octet-stream;base64,"
		}
	]
}
