{
    "asset" : {
        "generator" : "Khronos glTF Blender I/O v1.7.33",
        "version" : "2.0"
    },
    "scene" : 0,
    "scenes" : [
        {
            "name" : "Scene",
            "nodes" : [
                0,
                1,
                2,
                3,
                4,
                5,
                6,
                7,
                8,
                9,
                10,
                11,
                12,
                13,
                14
            ]
        }
    ],
    "nodes" : [
        {
            "mesh" : 0,
            "name" : "_Default",
            "scale" : [
                0.02539999969303608,
                0.02539999969303608,
                0.02539999969303608
            ]
        },
        {
            "mesh" : 1,
            "name" : "Sphere",
            "scale" : [
                0.02539999969303608,
                0.02539999969303608,
                0.02539999969303608
            ]
        },
        {
            "mesh" : 2,
            "name" : "Ico",
            "scale" : [
                0.02539999969303608,
                0.02539999969303608,
                0.02539999969303608
            ]
        },
        {
            "mesh" : 3,
            "name" : "TeeShirt",
            "scale" : [
                0.02539999969303608,
                0.02539999969303608,
                0.02539999969303608
            ]
        },
        {
            "mesh" : 4,
            "name" : "Claw",
            "scale" : [
                0.02500000037252903,
                0.02500000037252903,
                0.02500000037252903
            ]
        },
        {
            "mesh" : 5,
            "name" : "Bell",
            "scale" : [
                0.02539999969303608,
                0.02539999969303608,
                0.02539999969303608
            ]
        },
        {
            "mesh" : 6,
            "name" : "Hand",
            "scale" : [
                0.02539999969303608,
                0.02539999969303608,
                0.02539999969303608
            ]
        },
        {
            "mesh" : 7,
            "name" : "Cat",
            "scale" : [
                0.02539999969303608,
                0.02539999969303608,
                0.02539999969303608
            ]
        },
        {
            "mesh" : 8,
            "name" : "Robot",
            "scale" : [
                0.02539999969303608,
                0.02539999969303608,
                0.02539999969303608
            ],
            "translation" : [
                0,
                -0.13623203337192535,
                0
            ]
        },
        {
            "mesh" : 9,
            "name" : "Rainbow",
            "scale" : [
                0.02539999969303608,
                0.02539999969303608,
                0.02539999969303608
            ]
        },
        {
            "mesh" : 10,
            "name" : "Football",
            "scale" : [
                0.02539999969303608,
                0.02539999969303608,
                0.02539999969303608
            ]
        },
        {
            "mesh" : 11,
            "name" : "Furby",
            "scale" : [
                0.02539999969303608,
                0.02539999969303608,
                0.02539999969303608
            ]
        },
        {
            "mesh" : 12,
            "name" : "Head",
            "scale" : [
                0.02539999969303608,
                0.02539999969303608,
                0.02539999969303608
            ]
        },
        {
            "mesh" : 13,
            "name" : "Laptop",
            "scale" : [
                0.02539999969303608,
                0.02539999969303608,
                0.02539999969303608
            ]
        },
        {
            "mesh" : 14,
            "name" : "Periscope",
            "scale" : [
                0.02539999969303608,
                0.02539999969303608,
                0.02539999969303608
            ]
        }
    ],
    "meshes" : [
        {
            "name" : "Mesh.002",
            "primitives" : [
                {
                    "attributes" : {
                        "POSITION" : 0
                    },
                    "indices" : 1
                }
            ]
        },
        {
            "name" : "Mesh.010",
            "primitives" : [
                {
                    "attributes" : {
                        "POSITION" : 2
                    },
                    "indices" : 1
                }
            ]
        },
        {
            "name" : "Mesh.020",
            "primitives" : [
                {
                    "attributes" : {
                        "POSITION" : 3
                    },
                    "indices" : 1
                }
            ]
        },
        {
            "name" : "Mesh.024",
            "primitives" : [
                {
                    "attributes" : {
                        "POSITION" : 4
                    },
                    "indices" : 1
                }
            ]
        },
        {
            "name" : "Mesh.026",
            "primitives" : [
                {
                    "attributes" : {
                        "POSITION" : 5
                    },
                    "indices" : 1
                }
            ]
        },
        {
            "name" : "Mesh.030",
            "primitives" : [
                {
                    "attributes" : {
                        "POSITION" : 6
                    },
                    "indices" : 1
                }
            ]
        },
        {
            "name" : "Mesh.031",
            "primitives" : [
                {
                    "attributes" : {
                        "POSITION" : 7
                    },
                    "indices" : 1
                }
            ]
        },
        {
            "name" : "Mesh.032",
            "primitives" : [
                {
                    "attributes" : {
                        "POSITION" : 8
                    },
                    "indices" : 1
                }
            ]
        },
        {
            "name" : "Mesh.034",
            "primitives" : [
                {
                    "attributes" : {
                        "POSITION" : 9
                    },
                    "indices" : 1
                }
            ]
        },
        {
            "name" : "Mesh.006",
            "primitives" : [
                {
                    "attributes" : {
                        "POSITION" : 10
                    },
                    "indices" : 1
                }
            ]
        },
        {
            "name" : "Mesh.012",
            "primitives" : [
                {
                    "attributes" : {
                        "POSITION" : 11
                    },
                    "indices" : 1
                }
            ]
        },
        {
            "name" : "Mesh.013",
            "primitives" : [
                {
                    "attributes" : {
                        "POSITION" : 12
                    },
                    "indices" : 1
                }
            ]
        },
        {
            "name" : "Mesh.018",
            "primitives" : [
                {
                    "attributes" : {
                        "POSITION" : 13
                    },
                    "indices" : 1
                }
            ]
        },
        {
            "name" : "Mesh.023",
            "primitives" : [
                {
                    "attributes" : {
                        "POSITION" : 14
                    },
                    "indices" : 1
                }
            ]
        },
        {
            "name" : "Mesh.025",
            "primitives" : [
                {
                    "attributes" : {
                        "POSITION" : 15
                    },
                    "indices" : 1
                }
            ]
        }
    ],
    "accessors" : [
        {
            "bufferView" : 0,
            "componentType" : 5126,
            "count" : 492,
            "max" : [
                39.268836975097656,
                39.370079040527344,
                39.24703598022461
            ],
            "min" : [
                -39.268836975097656,
                -39.370079040527344,
                -39.247032165527344
            ],
            "type" : "VEC3"
        },
        {
            "bufferView" : 1,
            "componentType" : 5123,
            "count" : 2940,
            "type" : "SCALAR"
        },
        {
            "bufferView" : 2,
            "componentType" : 5126,
            "count" : 492,
            "max" : [
                39.268836975097656,
                39.370079040527344,
                39.24703598022461
            ],
            "min" : [
                -39.268836975097656,
                -39.370079040527344,
                -39.247032165527344
            ],
            "type" : "VEC3"
        },
        {
            "bufferView" : 3,
            "componentType" : 5126,
            "count" : 492,
            "max" : [
                35.21357727050781,
                39.37008285522461,
                33.489768981933594
            ],
            "min" : [
                -35.21357727050781,
                -39.37008285522461,
                -33.489768981933594
            ],
            "type" : "VEC3"
        },
        {
            "bufferView" : 4,
            "componentType" : 5126,
            "count" : 492,
            "max" : [
                36.61980438232422,
                40.536834716796875,
                16.31053924560547
            ],
            "min" : [
                -35.6328239440918,
                -36.2850341796875,
                -17.357933044433594
            ],
            "type" : "VEC3"
        },
        {
            "bufferView" : 5,
            "componentType" : 5126,
            "count" : 492,
            "max" : [
                31.730472564697266,
                45.859493255615234,
                30.0084285736084
            ],
            "min" : [
                -21.09000015258789,
                -41.66461944580078,
                -36.999210357666016
            ],
            "type" : "VEC3"
        },
        {
            "bufferView" : 6,
            "componentType" : 5126,
            "count" : 492,
            "max" : [
                47.84482955932617,
                44.53574752807617,
                40.49397659301758
            ],
            "min" : [
                -30.345205307006836,
                -33.117191314697266,
                -40.018924713134766
            ],
            "type" : "VEC3"
        },
        {
            "bufferView" : 7,
            "componentType" : 5126,
            "count" : 492,
            "max" : [
                55.97780227661133,
                30.438827514648438,
                38.822444915771484
            ],
            "min" : [
                -65.07506561279297,
                -22.205610275268555,
                -38.73125457763672
            ],
            "type" : "VEC3"
        },
        {
            "bufferView" : 8,
            "componentType" : 5126,
            "count" : 492,
            "max" : [
                47.41321563720703,
                45.13960266113281,
                44.78446578979492
            ],
            "min" : [
                -36.50716781616211,
                -46.2213249206543,
                -44.702579498291016
            ],
            "type" : "VEC3"
        },
        {
            "bufferView" : 9,
            "componentType" : 5126,
            "count" : 492,
            "max" : [
                58.086429595947266,
                62.25368881225586,
                45.238746643066406
            ],
            "min" : [
                -61.150047302246094,
                -53.41722106933594,
                -47.23267364501953
            ],
            "type" : "VEC3"
        },
        {
            "bufferView" : 10,
            "componentType" : 5126,
            "count" : 492,
            "max" : [
                60.0556526184082,
                39.257904052734375,
                19.108436584472656
            ],
            "min" : [
                -60.51226043701172,
                -22.06015396118164,
                -18.33698844909668
            ],
            "type" : "VEC3"
        },
        {
            "bufferView" : 11,
            "componentType" : 5126,
            "count" : 492,
            "max" : [
                29.481557846069336,
                55.79585266113281,
                33.881263732910156
            ],
            "min" : [
                -28.852550506591797,
                -76.90736389160156,
                -35.85265350341797
            ],
            "type" : "VEC3"
        },
        {
            "bufferView" : 12,
            "componentType" : 5126,
            "count" : 492,
            "max" : [
                46.137325286865234,
                41.450260162353516,
                38.723876953125
            ],
            "min" : [
                -43.8765983581543,
                -38.0276985168457,
                -42.91548538208008
            ],
            "type" : "VEC3"
        },
        {
            "bufferView" : 13,
            "componentType" : 5126,
            "count" : 492,
            "max" : [
                37.166194915771484,
                49.121524810791016,
                36.45319747924805
            ],
            "min" : [
                -46.47993469238281,
                -57.30941390991211,
                -36.860496520996094
            ],
            "type" : "VEC3"
        },
        {
            "bufferView" : 14,
            "componentType" : 5126,
            "count" : 492,
            "max" : [
                27.764694213867188,
                33.96843338012695,
                43.19786071777344
            ],
            "min" : [
                -39.73154830932617,
                -24.030168533325195,
                -43.525028228759766
            ],
            "type" : "VEC3"
        },
        {
            "bufferView" : 15,
            "componentType" : 5126,
            "count" : 492,
            "max" : [
                33.391727447509766,
                61.35466003417969,
                28.07703971862793
            ],
            "min" : [
                -35.62060546875,
                -40.071571350097656,
                -28.07790184020996
            ],
            "type" : "VEC3"
        }
    ],
    "bufferViews" : [
        {
            "buffer" : 0,
            "byteLength" : 5904,
            "byteOffset" : 0
        },
        {
            "buffer" : 0,
            "byteLength" : 5880,
            "byteOffset" : 5904
        },
        {
            "buffer" : 0,
            "byteLength" : 5904,
            "byteOffset" : 11784
        },
        {
            "buffer" : 0,
            "byteLength" : 5904,
            "byteOffset" : 17688
        },
        {
            "buffer" : 0,
            "byteLength" : 5904,
            "byteOffset" : 23592
        },
        {
            "buffer" : 0,
            "byteLength" : 5904,
            "byteOffset" : 29496
        },
        {
            "buffer" : 0,
            "byteLength" : 5904,
            "byteOffset" : 35400
        },
        {
            "buffer" : 0,
            "byteLength" : 5904,
            "byteOffset" : 41304
        },
        {
            "buffer" : 0,
            "byteLength" : 5904,
            "byteOffset" : 47208
        },
        {
            "buffer" : 0,
            "byteLength" : 5904,
            "byteOffset" : 53112
        },
        {
            "buffer" : 0,
            "byteLength" : 5904,
            "byteOffset" : 59016
        },
        {
            "buffer" : 0,
            "byteLength" : 5904,
            "byteOffset" : 64920
        },
        {
            "buffer" : 0,
            "byteLength" : 5904,
            "byteOffset" : 70824
        },
        {
            "buffer" : 0,
            "byteLength" : 5904,
            "byteOffset" : 76728
        },
        {
            "buffer" : 0,
            "byteLength" : 5904,
            "byteOffset" : 82632
        },
        {
            "buffer" : 0,
            "byteLength" : 5904,
            "byteOffset" : 88536
        }
    ],
    "buffers" : [
        {
            "byteLength" : 94440,
            "uri" : "data:application/octet-stream;base64,"
        }
    ]
}
