{
	"asset":{
		"generator":"Khronos glTF Blender I/O v3.5.30",
		"version":"2.0"
	},
	"scene":0,
	"scenes":[
		{
			"name":"Scene",
			"nodes":[
				0,
				1,
				2,
				3,
				4,
				5,
				6,
				7,
				8,
				9,
				10,
				11,
				12,
				13,
				14,
				15,
				16,
				17
			]
		}
	],
	"nodes":[
		{
			"mesh":0,
			"name":"_Default",
			"scale":[
				0.02539999969303608,
				0.02539999969303608,
				0.02539999969303608
			]
		},
		{
			"mesh":1,
			"name":"Helmet",
			"scale":[
				0.02539999969303608,
				0.02539999969303608,
				0.02539999969303608
			]
		},
		{
			"mesh":2,
			"name":"Sphere",
			"scale":[
				0.02539999969303608,
				0.02539999969303608,
				0.02539999969303608
			]
		},
		{
			"mesh":3,
			"name":"TeeShirt",
			"scale":[
				0.02539999969303608,
				0.02539999969303608,
				0.02539999969303608
			]
		},
		{
			"mesh":4,
			"name":"Claw",
			"scale":[
				0.02500000037252903,
				0.02500000037252903,
				0.02500000037252903
			]
		},
		{
			"mesh":5,
			"name":"Bell",
			"scale":[
				0.02539999969303608,
				0.02539999969303608,
				0.02539999969303608
			]
		},
		{
			"mesh":6,
			"name":"Hand",
			"scale":[
				0.02539999969303608,
				0.02539999969303608,
				0.02539999969303608
			]
		},
		{
			"mesh":7,
			"name":"Cat",
			"scale":[
				0.02539999969303608,
				0.02539999969303608,
				0.02539999969303608
			]
		},
		{
			"mesh":8,
			"name":"Robot",
			"scale":[
				0.02539999969303608,
				0.02539999969303608,
				0.02539999969303608
			],
			"translation":[
				0,
				-0.13623203337192535,
				0
			]
		},
		{
			"mesh":9,
			"name":"Robot Target",
			"scale":[
				0.8721827864646912,
				0.26667267084121704,
				0.3261256814002991
			],
			"translation":[
				0.006860494613647461,
				0.04188451170921326,
				0
			]
		},
		{
			"mesh":10,
			"name":"Robot.001",
			"scale":[
				0.02539999969303608,
				0.02539999969303608,
				0.02539999969303608
			],
			"translation":[
				0,
				-0.13623203337192535,
				0
			]
		},
		{
			"mesh":11,
			"name":"Rainbow",
			"scale":[
				0.02539999969303608,
				0.02539999969303608,
				0.02539999969303608
			]
		},
		{
			"mesh":12,
			"name":"Football",
			"scale":[
				0.02539999969303608,
				0.02539999969303608,
				0.02539999969303608
			]
		},
		{
			"mesh":13,
			"name":"Furby",
			"scale":[
				0.02539999969303608,
				0.02539999969303608,
				0.02539999969303608
			]
		},
		{
			"mesh":14,
			"name":"Head",
			"scale":[
				0.02539999969303608,
				0.02539999969303608,
				0.02539999969303608
			]
		},
		{
			"mesh":15,
			"name":"Laptop",
			"scale":[
				0.02539999969303608,
				0.02539999969303608,
				0.02539999969303608
			]
		},
		{
			"mesh":16,
			"name":"Periscope",
			"scale":[
				0.02539999969303608,
				0.02539999969303608,
				0.02539999969303608
			]
		},
		{
			"mesh":17,
			"name":"Yolk",
			"scale":[
				0.02539999969303608,
				0.02539999969303608,
				0.02539999969303608
			]
		}
	],
	"meshes":[
		{
			"name":"Mesh.002",
			"primitives":[
				{
					"attributes":{
						"POSITION":0,
						"NORMAL":1
					},
					"indices":2
				}
			]
		},
		{
			"name":"Mesh.004",
			"primitives":[
				{
					"attributes":{
						"POSITION":3,
						"NORMAL":4
					},
					"indices":5
				}
			]
		},
		{
			"name":"Mesh.010",
			"primitives":[
				{
					"attributes":{
						"POSITION":6,
						"NORMAL":7
					},
					"indices":2
				}
			]
		},
		{
			"name":"Mesh.024",
			"primitives":[
				{
					"attributes":{
						"POSITION":8,
						"NORMAL":9
					},
					"indices":10
				}
			]
		},
		{
			"name":"Mesh.026",
			"primitives":[
				{
					"attributes":{
						"POSITION":11,
						"NORMAL":12
					},
					"indices":13
				}
			]
		},
		{
			"name":"Mesh.030",
			"primitives":[
				{
					"attributes":{
						"POSITION":14,
						"NORMAL":15
					},
					"indices":16
				}
			]
		},
		{
			"name":"Mesh.031",
			"primitives":[
				{
					"attributes":{
						"POSITION":17,
						"NORMAL":18
					},
					"indices":19
				}
			]
		},
		{
			"name":"Mesh.032",
			"primitives":[
				{
					"attributes":{
						"POSITION":20,
						"NORMAL":21
					},
					"indices":22
				}
			]
		},
		{
			"name":"Mesh.034",
			"primitives":[
				{
					"attributes":{
						"POSITION":23,
						"NORMAL":24
					},
					"indices":25
				}
			]
		},
		{
			"name":"Cube.004",
			"primitives":[
				{
					"attributes":{
						"POSITION":26,
						"NORMAL":27
					},
					"indices":28
				}
			]
		},
		{
			"name":"Mesh.035",
			"primitives":[
				{
					"attributes":{
						"POSITION":29,
						"NORMAL":30
					},
					"indices":31
				}
			]
		},
		{
			"name":"Mesh.006",
			"primitives":[
				{
					"attributes":{
						"POSITION":32,
						"NORMAL":33
					},
					"indices":34
				}
			]
		},
		{
			"name":"Mesh.012",
			"primitives":[
				{
					"attributes":{
						"POSITION":35,
						"NORMAL":36
					},
					"indices":37
				}
			]
		},
		{
			"name":"Mesh.013",
			"primitives":[
				{
					"attributes":{
						"POSITION":38,
						"NORMAL":39
					},
					"indices":40
				}
			]
		},
		{
			"name":"Mesh.018",
			"primitives":[
				{
					"attributes":{
						"POSITION":41,
						"NORMAL":42
					},
					"indices":43
				}
			]
		},
		{
			"name":"Mesh.021",
			"primitives":[
				{
					"attributes":{
						"POSITION":44,
						"NORMAL":45
					},
					"indices":46
				}
			]
		},
		{
			"name":"Mesh.023",
			"primitives":[
				{
					"attributes":{
						"POSITION":47,
						"NORMAL":48
					},
					"indices":49
				}
			]
		},
		{
			"name":"Mesh.001",
			"primitives":[
				{
					"attributes":{
						"POSITION":50,
						"NORMAL":51
					},
					"indices":52
				}
			]
		}
	],
	"accessors":[
		{
			"bufferView":0,
			"componentType":5126,
			"count":2940,
			"max":[
				39.268836975097656,
				39.370079040527344,
				39.24703598022461
			],
			"min":[
				-39.268836975097656,
				-39.370079040527344,
				-39.247032165527344
			],
			"type":"VEC3"
		},
		{
			"bufferView":1,
			"componentType":5126,
			"count":2940,
			"type":"VEC3"
		},
		{
			"bufferView":2,
			"componentType":5123,
			"count":2940,
			"type":"SCALAR"
		},
		{
			"bufferView":3,
			"componentType":5126,
			"count":2940,
			"max":[
				42.57185745239258,
				41.68360900878906,
				37.34654998779297
			],
			"min":[
				-46.32637405395508,
				-31.584972381591797,
				-37.47848892211914
			],
			"type":"VEC3"
		},
		{
			"bufferView":4,
			"componentType":5126,
			"count":2940,
			"type":"VEC3"
		},
		{
			"bufferView":5,
			"componentType":5123,
			"count":2940,
			"type":"SCALAR"
		},
		{
			"bufferView":6,
			"componentType":5126,
			"count":2940,
			"max":[
				39.268836975097656,
				39.370079040527344,
				39.24703598022461
			],
			"min":[
				-39.268836975097656,
				-39.370079040527344,
				-39.247032165527344
			],
			"type":"VEC3"
		},
		{
			"bufferView":7,
			"componentType":5126,
			"count":2940,
			"type":"VEC3"
		},
		{
			"bufferView":8,
			"componentType":5126,
			"count":2931,
			"max":[
				36.61980438232422,
				40.536834716796875,
				16.31053924560547
			],
			"min":[
				-35.6328239440918,
				-36.2850341796875,
				-17.357933044433594
			],
			"type":"VEC3"
		},
		{
			"bufferView":9,
			"componentType":5126,
			"count":2931,
			"type":"VEC3"
		},
		{
			"bufferView":10,
			"componentType":5123,
			"count":2940,
			"type":"SCALAR"
		},
		{
			"bufferView":11,
			"componentType":5126,
			"count":2940,
			"max":[
				31.730472564697266,
				45.859493255615234,
				30.0084285736084
			],
			"min":[
				-21.09000015258789,
				-41.66461944580078,
				-36.999210357666016
			],
			"type":"VEC3"
		},
		{
			"bufferView":12,
			"componentType":5126,
			"count":2940,
			"type":"VEC3"
		},
		{
			"bufferView":13,
			"componentType":5123,
			"count":2940,
			"type":"SCALAR"
		},
		{
			"bufferView":14,
			"componentType":5126,
			"count":2940,
			"max":[
				47.84482955932617,
				44.53574752807617,
				40.49397659301758
			],
			"min":[
				-30.345205307006836,
				-33.117191314697266,
				-40.018924713134766
			],
			"type":"VEC3"
		},
		{
			"bufferView":15,
			"componentType":5126,
			"count":2940,
			"type":"VEC3"
		},
		{
			"bufferView":16,
			"componentType":5123,
			"count":2940,
			"type":"SCALAR"
		},
		{
			"bufferView":17,
			"componentType":5126,
			"count":2938,
			"max":[
				55.97780227661133,
				29.84327507019043,
				38.822444915771484
			],
			"min":[
				-65.10447692871094,
				-22.205610275268555,
				-40.07461166381836
			],
			"type":"VEC3"
		},
		{
			"bufferView":18,
			"componentType":5126,
			"count":2938,
			"type":"VEC3"
		},
		{
			"bufferView":19,
			"componentType":5123,
			"count":2940,
			"type":"SCALAR"
		},
		{
			"bufferView":20,
			"componentType":5126,
			"count":2940,
			"max":[
				47.41321563720703,
				45.13960266113281,
				44.78446578979492
			],
			"min":[
				-36.50716781616211,
				-46.2213249206543,
				-44.702579498291016
			],
			"type":"VEC3"
		},
		{
			"bufferView":21,
			"componentType":5126,
			"count":2940,
			"type":"VEC3"
		},
		{
			"bufferView":22,
			"componentType":5123,
			"count":2940,
			"type":"SCALAR"
		},
		{
			"bufferView":23,
			"componentType":5126,
			"count":2940,
			"max":[
				58.086429595947266,
				62.25368881225586,
				45.238746643066406
			],
			"min":[
				-61.150047302246094,
				-53.41722106933594,
				-47.23267364501953
			],
			"type":"VEC3"
		},
		{
			"bufferView":24,
			"componentType":5126,
			"count":2940,
			"type":"VEC3"
		},
		{
			"bufferView":25,
			"componentType":5123,
			"count":2940,
			"type":"SCALAR"
		},
		{
			"bufferView":26,
			"componentType":5126,
			"count":635,
			"max":[
				1.1807137727737427,
				3.299712657928467,
				3.066302537918091
			],
			"min":[
				-1.206558108329773,
				-4.611361503601074,
				-3.066302537918091
			],
			"type":"VEC3"
		},
		{
			"bufferView":27,
			"componentType":5126,
			"count":635,
			"type":"VEC3"
		},
		{
			"bufferView":28,
			"componentType":5123,
			"count":1236,
			"type":"SCALAR"
		},
		{
			"bufferView":29,
			"componentType":5126,
			"count":2938,
			"max":[
				35.144020080566406,
				42.29930114746094,
				36.4691047668457
			],
			"min":[
				-38.011497497558594,
				-36.8878173828125,
				-40.38108444213867
			],
			"type":"VEC3"
		},
		{
			"bufferView":30,
			"componentType":5126,
			"count":2938,
			"type":"VEC3"
		},
		{
			"bufferView":31,
			"componentType":5123,
			"count":2940,
			"type":"SCALAR"
		},
		{
			"bufferView":32,
			"componentType":5126,
			"count":2314,
			"max":[
				60.0556526184082,
				39.257904052734375,
				19.108436584472656
			],
			"min":[
				-60.51226043701172,
				-22.06015396118164,
				-18.33698844909668
			],
			"type":"VEC3"
		},
		{
			"bufferView":33,
			"componentType":5126,
			"count":2314,
			"type":"VEC3"
		},
		{
			"bufferView":34,
			"componentType":5123,
			"count":2940,
			"type":"SCALAR"
		},
		{
			"bufferView":35,
			"componentType":5126,
			"count":2938,
			"max":[
				26.816234588623047,
				55.79585266113281,
				33.881263732910156
			],
			"min":[
				-26.086149215698242,
				-76.73908996582031,
				-35.85265350341797
			],
			"type":"VEC3"
		},
		{
			"bufferView":36,
			"componentType":5126,
			"count":2938,
			"type":"VEC3"
		},
		{
			"bufferView":37,
			"componentType":5123,
			"count":2940,
			"type":"SCALAR"
		},
		{
			"bufferView":38,
			"componentType":5126,
			"count":2940,
			"max":[
				46.137325286865234,
				46.982810974121094,
				38.723876953125
			],
			"min":[
				-43.8765983581543,
				-32.495147705078125,
				-42.91548538208008
			],
			"type":"VEC3"
		},
		{
			"bufferView":39,
			"componentType":5126,
			"count":2940,
			"type":"VEC3"
		},
		{
			"bufferView":40,
			"componentType":5123,
			"count":2940,
			"type":"SCALAR"
		},
		{
			"bufferView":41,
			"componentType":5126,
			"count":2934,
			"max":[
				37.166194915771484,
				49.121524810791016,
				36.45319747924805
			],
			"min":[
				-46.47993469238281,
				-57.30941390991211,
				-36.860496520996094
			],
			"type":"VEC3"
		},
		{
			"bufferView":42,
			"componentType":5126,
			"count":2934,
			"type":"VEC3"
		},
		{
			"bufferView":43,
			"componentType":5123,
			"count":2940,
			"type":"SCALAR"
		},
		{
			"bufferView":44,
			"componentType":5126,
			"count":2236,
			"max":[
				27.764694213867188,
				33.96843338012695,
				43.19786071777344
			],
			"min":[
				-39.73154830932617,
				-24.030168533325195,
				-43.525028228759766
			],
			"type":"VEC3"
		},
		{
			"bufferView":45,
			"componentType":5126,
			"count":2236,
			"type":"VEC3"
		},
		{
			"bufferView":46,
			"componentType":5123,
			"count":2940,
			"type":"SCALAR"
		},
		{
			"bufferView":47,
			"componentType":5126,
			"count":2940,
			"max":[
				28.63530158996582,
				48.12827682495117,
				14.111268997192383
			],
			"min":[
				-33.45563507080078,
				-50.61623001098633,
				-14.099953651428223
			],
			"type":"VEC3"
		},
		{
			"bufferView":48,
			"componentType":5126,
			"count":2940,
			"type":"VEC3"
		},
		{
			"bufferView":49,
			"componentType":5123,
			"count":2940,
			"type":"SCALAR"
		},
		{
			"bufferView":50,
			"componentType":5126,
			"count":2940,
			"max":[
				59.31000518798828,
				32.08580780029297,
				27.41229248046875
			],
			"min":[
				-65.9145278930664,
				-47.504554748535156,
				-27.6372127532959
			],
			"type":"VEC3"
		},
		{
			"bufferView":51,
			"componentType":5126,
			"count":2940,
			"type":"VEC3"
		},
		{
			"bufferView":52,
			"componentType":5123,
			"count":2940,
			"type":"SCALAR"
		}
	],
	"bufferViews":[
		{
			"buffer":0,
			"byteLength":35280,
			"byteOffset":0,
			"target":34962
		},
		{
			"buffer":0,
			"byteLength":35280,
			"byteOffset":35280,
			"target":34962
		},
		{
			"buffer":0,
			"byteLength":5880,
			"byteOffset":70560,
			"target":34963
		},
		{
			"buffer":0,
			"byteLength":35280,
			"byteOffset":76440,
			"target":34962
		},
		{
			"buffer":0,
			"byteLength":35280,
			"byteOffset":111720,
			"target":34962
		},
		{
			"buffer":0,
			"byteLength":5880,
			"byteOffset":147000,
			"target":34963
		},
		{
			"buffer":0,
			"byteLength":35280,
			"byteOffset":152880,
			"target":34962
		},
		{
			"buffer":0,
			"byteLength":35280,
			"byteOffset":188160,
			"target":34962
		},
		{
			"buffer":0,
			"byteLength":35172,
			"byteOffset":223440,
			"target":34962
		},
		{
			"buffer":0,
			"byteLength":35172,
			"byteOffset":258612,
			"target":34962
		},
		{
			"buffer":0,
			"byteLength":5880,
			"byteOffset":293784,
			"target":34963
		},
		{
			"buffer":0,
			"byteLength":35280,
			"byteOffset":299664,
			"target":34962
		},
		{
			"buffer":0,
			"byteLength":35280,
			"byteOffset":334944,
			"target":34962
		},
		{
			"buffer":0,
			"byteLength":5880,
			"byteOffset":370224,
			"target":34963
		},
		{
			"buffer":0,
			"byteLength":35280,
			"byteOffset":376104,
			"target":34962
		},
		{
			"buffer":0,
			"byteLength":35280,
			"byteOffset":411384,
			"target":34962
		},
		{
			"buffer":0,
			"byteLength":5880,
			"byteOffset":446664,
			"target":34963
		},
		{
			"buffer":0,
			"byteLength":35256,
			"byteOffset":452544,
			"target":34962
		},
		{
			"buffer":0,
			"byteLength":35256,
			"byteOffset":487800,
			"target":34962
		},
		{
			"buffer":0,
			"byteLength":5880,
			"byteOffset":523056,
			"target":34963
		},
		{
			"buffer":0,
			"byteLength":35280,
			"byteOffset":528936,
			"target":34962
		},
		{
			"buffer":0,
			"byteLength":35280,
			"byteOffset":564216,
			"target":34962
		},
		{
			"buffer":0,
			"byteLength":5880,
			"byteOffset":599496,
			"target":34963
		},
		{
			"buffer":0,
			"byteLength":35280,
			"byteOffset":605376,
			"target":34962
		},
		{
			"buffer":0,
			"byteLength":35280,
			"byteOffset":640656,
			"target":34962
		},
		{
			"buffer":0,
			"byteLength":5880,
			"byteOffset":675936,
			"target":34963
		},
		{
			"buffer":0,
			"byteLength":7620,
			"byteOffset":681816,
			"target":34962
		},
		{
			"buffer":0,
			"byteLength":7620,
			"byteOffset":689436,
			"target":34962
		},
		{
			"buffer":0,
			"byteLength":2472,
			"byteOffset":697056,
			"target":34963
		},
		{
			"buffer":0,
			"byteLength":35256,
			"byteOffset":699528,
			"target":34962
		},
		{
			"buffer":0,
			"byteLength":35256,
			"byteOffset":734784,
			"target":34962
		},
		{
			"buffer":0,
			"byteLength":5880,
			"byteOffset":770040,
			"target":34963
		},
		{
			"buffer":0,
			"byteLength":27768,
			"byteOffset":775920,
			"target":34962
		},
		{
			"buffer":0,
			"byteLength":27768,
			"byteOffset":803688,
			"target":34962
		},
		{
			"buffer":0,
			"byteLength":5880,
			"byteOffset":831456,
			"target":34963
		},
		{
			"buffer":0,
			"byteLength":35256,
			"byteOffset":837336,
			"target":34962
		},
		{
			"buffer":0,
			"byteLength":35256,
			"byteOffset":872592,
			"target":34962
		},
		{
			"buffer":0,
			"byteLength":5880,
			"byteOffset":907848,
			"target":34963
		},
		{
			"buffer":0,
			"byteLength":35280,
			"byteOffset":913728,
			"target":34962
		},
		{
			"buffer":0,
			"byteLength":35280,
			"byteOffset":949008,
			"target":34962
		},
		{
			"buffer":0,
			"byteLength":5880,
			"byteOffset":984288,
			"target":34963
		},
		{
			"buffer":0,
			"byteLength":35208,
			"byteOffset":990168,
			"target":34962
		},
		{
			"buffer":0,
			"byteLength":35208,
			"byteOffset":1025376,
			"target":34962
		},
		{
			"buffer":0,
			"byteLength":5880,
			"byteOffset":1060584,
			"target":34963
		},
		{
			"buffer":0,
			"byteLength":26832,
			"byteOffset":1066464,
			"target":34962
		},
		{
			"buffer":0,
			"byteLength":26832,
			"byteOffset":1093296,
			"target":34962
		},
		{
			"buffer":0,
			"byteLength":5880,
			"byteOffset":1120128,
			"target":34963
		},
		{
			"buffer":0,
			"byteLength":35280,
			"byteOffset":1126008,
			"target":34962
		},
		{
			"buffer":0,
			"byteLength":35280,
			"byteOffset":1161288,
			"target":34962
		},
		{
			"buffer":0,
			"byteLength":5880,
			"byteOffset":1196568,
			"target":34963
		},
		{
			"buffer":0,
			"byteLength":35280,
			"byteOffset":1202448,
			"target":34962
		},
		{
			"buffer":0,
			"byteLength":35280,
			"byteOffset":1237728,
			"target":34962
		},
		{
			"buffer":0,
			"byteLength":5880,
			"byteOffset":1273008,
			"target":34963
		}
	],
	"buffers":[
		{
			"byteLength":1278888,
			"uri":"data:application/octet-stream;base64,"
		}
	]
}
