{
	"asset":{
		"generator":"Khronos glTF Blender I/O v3.5.30",
		"version":"2.0"
	},
	"scene":0,
	"scenes":[
		{
			"name":"Scene",
			"nodes":[
				0
			]
		}
	],
	"nodes":[
		{
			"mesh":0,
			"name":"Cube"
		}
	],
	"meshes":[
		{
			"name":"Cube.001",
			"primitives":[
				{
					"attributes":{
						"POSITION":0,
						"TEXCOORD_0":1,
						"NORMAL":2
					},
					"indices":3
				}
			]
		}
	],
	"accessors":[
		{
			"bufferView":0,
			"componentType":5126,
			"count":68,
			"max":[
				0.10631595551967621,
				0.2000000774860382,
				0.02611127868294716
			],
			"min":[
				-0.10631595551967621,
				-0.2000000774860382,
				-0.02611127868294716
			],
			"type":"VEC3"
		},
		{
			"bufferView":1,
			"componentType":5126,
			"count":68,
			"type":"VEC2"
		},
		{
			"bufferView":2,
			"componentType":5126,
			"count":68,
			"type":"VEC3"
		},
		{
			"bufferView":3,
			"componentType":5123,
			"count":132,
			"type":"SCALAR"
		}
	],
	"bufferViews":[
		{
			"buffer":0,
			"byteLength":816,
			"byteOffset":0,
			"target":34962
		},
		{
			"buffer":0,
			"byteLength":544,
			"byteOffset":816,
			"target":34962
		},
		{
			"buffer":0,
			"byteLength":816,
			"byteOffset":1360,
			"target":34962
		},
		{
			"buffer":0,
			"byteLength":264,
			"byteOffset":2176,
			"target":34963
		}
	],
	"buffers":[
		{
			"byteLength":2440,
			"uri":"data:application/octet-stream;base64,"
		}
	]
}
