{
	"asset":{
		"generator":"Khronos glTF Blender I/O v3.5.30",
		"version":"2.0"
	},
	"scene":0,
	"scenes":[
		{
			"name":"Scene",
			"nodes":[
				0,
				1,
				2,
				3,
				4,
				5,
				6,
				7,
				8,
				9,
				10,
				11,
				12,
				13,
				14,
				15,
				16,
				17,
				18
			]
		}
	],
	"nodes":[
		{
			"mesh":0,
			"name":"_Default",
			"scale":[
				0.02539999969303608,
				0.02539999969303608,
				0.02539999969303608
			]
		},
		{
			"mesh":1,
			"name":"Helmet",
			"scale":[
				0.02539999969303608,
				0.02539999969303608,
				0.02539999969303608
			]
		},
		{
			"mesh":2,
			"name":"Sphere",
			"scale":[
				0.02539999969303608,
				0.02539999969303608,
				0.02539999969303608
			]
		},
		{
			"mesh":3,
			"name":"TeeShirt",
			"scale":[
				0.02539999969303608,
				0.02539999969303608,
				0.02539999969303608
			]
		},
		{
			"mesh":4,
			"name":"Claw",
			"scale":[
				0.02500000037252903,
				0.02500000037252903,
				0.02500000037252903
			]
		},
		{
			"mesh":5,
			"name":"Bell",
			"scale":[
				0.02539999969303608,
				0.02539999969303608,
				0.02539999969303608
			]
		},
		{
			"mesh":6,
			"name":"Hand",
			"scale":[
				0.02539999969303608,
				0.02539999969303608,
				0.02539999969303608
			]
		},
		{
			"mesh":7,
			"name":"Cat",
			"scale":[
				0.02539999969303608,
				0.02539999969303608,
				0.02539999969303608
			]
		},
		{
			"mesh":8,
			"name":"Robot",
			"scale":[
				0.02539999969303608,
				0.02539999969303608,
				0.02539999969303608
			],
			"translation":[
				0,
				-0.13623203337192535,
				0
			]
		},
		{
			"mesh":9,
			"name":"Robot Target",
			"scale":[
				0.8721827864646912,
				0.26667267084121704,
				0.3261256814002991
			],
			"translation":[
				0.006860494613647461,
				0.04188451170921326,
				0
			]
		},
		{
			"mesh":10,
			"name":"Robot.001",
			"scale":[
				0.02539999969303608,
				0.02539999969303608,
				0.02539999969303608
			],
			"translation":[
				0,
				-0.13623203337192535,
				0
			]
		},
		{
			"mesh":11,
			"name":"Rainbow",
			"scale":[
				0.02539999969303608,
				0.02539999969303608,
				0.02539999969303608
			]
		},
		{
			"mesh":12,
			"name":"Football",
			"scale":[
				0.02539999969303608,
				0.02539999969303608,
				0.02539999969303608
			]
		},
		{
			"mesh":13,
			"name":"Furby",
			"scale":[
				0.02539999969303608,
				0.02539999969303608,
				0.02539999969303608
			]
		},
		{
			"mesh":14,
			"name":"Head",
			"scale":[
				0.02539999969303608,
				0.02539999969303608,
				0.02539999969303608
			]
		},
		{
			"mesh":15,
			"name":"Laptop",
			"scale":[
				0.02539999969303608,
				0.02539999969303608,
				0.02539999969303608
			]
		},
		{
			"mesh":16,
			"name":"Periscope",
			"scale":[
				0.02539999969303608,
				0.02539999969303608,
				0.02539999969303608
			]
		},
		{
			"mesh":17,
			"name":"Yolk",
			"scale":[
				0.02539999969303608,
				0.02539999969303608,
				0.02539999969303608
			]
		},
		{
			"mesh":18,
			"name":"Corn",
			"scale":[
				0.02539999969303608,
				0.02539999969303608,
				0.02539999969303608
			]
		}
	],
	"meshes":[
		{
			"name":"Mesh.002",
			"primitives":[
				{
					"attributes":{
						"POSITION":0
					},
					"indices":1
				}
			]
		},
		{
			"name":"Mesh.004",
			"primitives":[
				{
					"attributes":{
						"POSITION":2
					},
					"indices":1
				}
			]
		},
		{
			"name":"Mesh.010",
			"primitives":[
				{
					"attributes":{
						"POSITION":3
					},
					"indices":1
				}
			]
		},
		{
			"name":"Mesh.024",
			"primitives":[
				{
					"attributes":{
						"POSITION":4
					},
					"indices":1
				}
			]
		},
		{
			"name":"Mesh.026",
			"primitives":[
				{
					"attributes":{
						"POSITION":5
					},
					"indices":1
				}
			]
		},
		{
			"name":"Mesh.030",
			"primitives":[
				{
					"attributes":{
						"POSITION":6
					},
					"indices":1
				}
			]
		},
		{
			"name":"Mesh.031",
			"primitives":[
				{
					"attributes":{
						"POSITION":7
					},
					"indices":1
				}
			]
		},
		{
			"name":"Mesh.032",
			"primitives":[
				{
					"attributes":{
						"POSITION":8
					},
					"indices":1
				}
			]
		},
		{
			"name":"Mesh.034",
			"primitives":[
				{
					"attributes":{
						"POSITION":9
					},
					"indices":1
				}
			]
		},
		{
			"name":"Cube.004",
			"primitives":[
				{
					"attributes":{
						"POSITION":10
					},
					"indices":11
				}
			]
		},
		{
			"name":"Mesh.035",
			"primitives":[
				{
					"attributes":{
						"POSITION":12
					},
					"indices":1
				}
			]
		},
		{
			"name":"Mesh.006",
			"primitives":[
				{
					"attributes":{
						"POSITION":13
					},
					"indices":1
				}
			]
		},
		{
			"name":"Mesh.012",
			"primitives":[
				{
					"attributes":{
						"POSITION":14
					},
					"indices":1
				}
			]
		},
		{
			"name":"Mesh.013",
			"primitives":[
				{
					"attributes":{
						"POSITION":15
					},
					"indices":1
				}
			]
		},
		{
			"name":"Mesh.018",
			"primitives":[
				{
					"attributes":{
						"POSITION":16
					},
					"indices":1
				}
			]
		},
		{
			"name":"Mesh.021",
			"primitives":[
				{
					"attributes":{
						"POSITION":17
					},
					"indices":1
				}
			]
		},
		{
			"name":"Mesh.023",
			"primitives":[
				{
					"attributes":{
						"POSITION":18
					},
					"indices":1
				}
			]
		},
		{
			"name":"Mesh.001",
			"primitives":[
				{
					"attributes":{
						"POSITION":19
					},
					"indices":1
				}
			]
		},
		{
			"name":"Mesh.003",
			"primitives":[
				{
					"attributes":{
						"POSITION":20
					},
					"indices":1
				}
			]
		}
	],
	"accessors":[
		{
			"bufferView":0,
			"componentType":5126,
			"count":492,
			"max":[
				39.268836975097656,
				39.370079040527344,
				39.24703598022461
			],
			"min":[
				-39.268836975097656,
				-39.370079040527344,
				-39.247032165527344
			],
			"type":"VEC3"
		},
		{
			"bufferView":1,
			"componentType":5123,
			"count":2940,
			"type":"SCALAR"
		},
		{
			"bufferView":2,
			"componentType":5126,
			"count":492,
			"max":[
				42.57185745239258,
				41.68360900878906,
				37.34654998779297
			],
			"min":[
				-46.32637405395508,
				-31.584972381591797,
				-37.47848892211914
			],
			"type":"VEC3"
		},
		{
			"bufferView":3,
			"componentType":5126,
			"count":492,
			"max":[
				39.268836975097656,
				39.370079040527344,
				39.24703598022461
			],
			"min":[
				-39.268836975097656,
				-39.370079040527344,
				-39.247032165527344
			],
			"type":"VEC3"
		},
		{
			"bufferView":4,
			"componentType":5126,
			"count":492,
			"max":[
				36.61980438232422,
				40.536834716796875,
				16.31053924560547
			],
			"min":[
				-35.6328239440918,
				-36.2850341796875,
				-17.357933044433594
			],
			"type":"VEC3"
		},
		{
			"bufferView":5,
			"componentType":5126,
			"count":492,
			"max":[
				31.730472564697266,
				45.859493255615234,
				30.0084285736084
			],
			"min":[
				-21.09000015258789,
				-41.66461944580078,
				-36.999210357666016
			],
			"type":"VEC3"
		},
		{
			"bufferView":6,
			"componentType":5126,
			"count":492,
			"max":[
				47.84482955932617,
				44.53574752807617,
				40.49397659301758
			],
			"min":[
				-30.345205307006836,
				-33.117191314697266,
				-40.018924713134766
			],
			"type":"VEC3"
		},
		{
			"bufferView":7,
			"componentType":5126,
			"count":492,
			"max":[
				55.97780227661133,
				29.84327507019043,
				38.822444915771484
			],
			"min":[
				-65.10447692871094,
				-22.205610275268555,
				-40.07461166381836
			],
			"type":"VEC3"
		},
		{
			"bufferView":8,
			"componentType":5126,
			"count":492,
			"max":[
				47.41321563720703,
				45.13960266113281,
				44.78446578979492
			],
			"min":[
				-36.50716781616211,
				-46.2213249206543,
				-44.702579498291016
			],
			"type":"VEC3"
		},
		{
			"bufferView":9,
			"componentType":5126,
			"count":492,
			"max":[
				58.086429595947266,
				62.25368881225586,
				45.238746643066406
			],
			"min":[
				-61.150047302246094,
				-53.41722106933594,
				-47.23267364501953
			],
			"type":"VEC3"
		},
		{
			"bufferView":10,
			"componentType":5126,
			"count":205,
			"max":[
				1.1807137727737427,
				3.299712657928467,
				3.066302537918091
			],
			"min":[
				-1.206558108329773,
				-4.611361503601074,
				-3.066302537918091
			],
			"type":"VEC3"
		},
		{
			"bufferView":11,
			"componentType":5123,
			"count":1218,
			"type":"SCALAR"
		},
		{
			"bufferView":12,
			"componentType":5126,
			"count":492,
			"max":[
				35.144020080566406,
				42.29930114746094,
				36.4691047668457
			],
			"min":[
				-38.011497497558594,
				-36.8878173828125,
				-40.38108444213867
			],
			"type":"VEC3"
		},
		{
			"bufferView":13,
			"componentType":5126,
			"count":492,
			"max":[
				60.0556526184082,
				39.257904052734375,
				19.108436584472656
			],
			"min":[
				-60.51226043701172,
				-22.06015396118164,
				-18.33698844909668
			],
			"type":"VEC3"
		},
		{
			"bufferView":14,
			"componentType":5126,
			"count":492,
			"max":[
				26.816234588623047,
				55.79585266113281,
				33.881263732910156
			],
			"min":[
				-26.086149215698242,
				-76.73908996582031,
				-35.85265350341797
			],
			"type":"VEC3"
		},
		{
			"bufferView":15,
			"componentType":5126,
			"count":492,
			"max":[
				46.137325286865234,
				46.982810974121094,
				38.723876953125
			],
			"min":[
				-43.8765983581543,
				-32.495147705078125,
				-42.91548538208008
			],
			"type":"VEC3"
		},
		{
			"bufferView":16,
			"componentType":5126,
			"count":492,
			"max":[
				37.166194915771484,
				49.121524810791016,
				36.45319747924805
			],
			"min":[
				-46.47993469238281,
				-57.30941390991211,
				-36.860496520996094
			],
			"type":"VEC3"
		},
		{
			"bufferView":17,
			"componentType":5126,
			"count":492,
			"max":[
				27.764694213867188,
				33.96843338012695,
				43.19786071777344
			],
			"min":[
				-39.73154830932617,
				-24.030168533325195,
				-43.525028228759766
			],
			"type":"VEC3"
		},
		{
			"bufferView":18,
			"componentType":5126,
			"count":492,
			"max":[
				28.63530158996582,
				48.12827682495117,
				14.111268997192383
			],
			"min":[
				-33.45563507080078,
				-50.61623001098633,
				-14.099953651428223
			],
			"type":"VEC3"
		},
		{
			"bufferView":19,
			"componentType":5126,
			"count":492,
			"max":[
				59.31000518798828,
				32.08580780029297,
				27.41229248046875
			],
			"min":[
				-65.9145278930664,
				-47.504554748535156,
				-27.6372127532959
			],
			"type":"VEC3"
		},
		{
			"bufferView":20,
			"componentType":5126,
			"count":492,
			"max":[
				52.043418884277344,
				14.452171325683594,
				15.163477897644043
			],
			"min":[
				-47.678462982177734,
				-14.254168510437012,
				-15.16347599029541
			],
			"type":"VEC3"
		}
	],
	"bufferViews":[
		{
			"buffer":0,
			"byteLength":5904,
			"byteOffset":0,
			"target":34962
		},
		{
			"buffer":0,
			"byteLength":5880,
			"byteOffset":5904,
			"target":34963
		},
		{
			"buffer":0,
			"byteLength":5904,
			"byteOffset":11784,
			"target":34962
		},
		{
			"buffer":0,
			"byteLength":5904,
			"byteOffset":17688,
			"target":34962
		},
		{
			"buffer":0,
			"byteLength":5904,
			"byteOffset":23592,
			"target":34962
		},
		{
			"buffer":0,
			"byteLength":5904,
			"byteOffset":29496,
			"target":34962
		},
		{
			"buffer":0,
			"byteLength":5904,
			"byteOffset":35400,
			"target":34962
		},
		{
			"buffer":0,
			"byteLength":5904,
			"byteOffset":41304,
			"target":34962
		},
		{
			"buffer":0,
			"byteLength":5904,
			"byteOffset":47208,
			"target":34962
		},
		{
			"buffer":0,
			"byteLength":5904,
			"byteOffset":53112,
			"target":34962
		},
		{
			"buffer":0,
			"byteLength":2460,
			"byteOffset":59016,
			"target":34962
		},
		{
			"buffer":0,
			"byteLength":2436,
			"byteOffset":61476,
			"target":34963
		},
		{
			"buffer":0,
			"byteLength":5904,
			"byteOffset":63912,
			"target":34962
		},
		{
			"buffer":0,
			"byteLength":5904,
			"byteOffset":69816,
			"target":34962
		},
		{
			"buffer":0,
			"byteLength":5904,
			"byteOffset":75720,
			"target":34962
		},
		{
			"buffer":0,
			"byteLength":5904,
			"byteOffset":81624,
			"target":34962
		},
		{
			"buffer":0,
			"byteLength":5904,
			"byteOffset":87528,
			"target":34962
		},
		{
			"buffer":0,
			"byteLength":5904,
			"byteOffset":93432,
			"target":34962
		},
		{
			"buffer":0,
			"byteLength":5904,
			"byteOffset":99336,
			"target":34962
		},
		{
			"buffer":0,
			"byteLength":5904,
			"byteOffset":105240,
			"target":34962
		},
		{
			"buffer":0,
			"byteLength":5904,
			"byteOffset":111144,
			"target":34962
		}
	],
	"buffers":[
		{
			"byteLength":117048,
			"uri":"data:application/octet-stream;base64,"
		}
	]
}
